<mxfile host="www.draw.io" modified="2020-03-02T08:56:50.680Z" agent="Mozilla/5.0 (Windows NT 10.0; Win64; x64) AppleWebKit/537.36 (KHTML, like Gecko) Chrome/80.0.3987.87 Safari/537.36" etag="BOKJngyjyI01jXUsCL26" version="12.7.9" type="github">
  <diagram id="2P1N9gcaB7Imwlt-QDEj" name="第 1 页">
    <mxGraphModel dx="1346" dy="1942" grid="1" gridSize="10" guides="1" tooltips="1" connect="1" arrows="1" fold="1" page="1" pageScale="1" pageWidth="827" pageHeight="1169" math="0" shadow="0">
      <root>
        <mxCell id="0" />
        <mxCell id="1" parent="0" />
        <mxCell id="2X3JBGWOSWir_4q3YpKH-16" value="Audio/Video Call(UserA Call UserB,A and B Talking)" style="rounded=0;whiteSpace=wrap;html=1;fillColor=#eeeeee;strokeColor=#36393d;horizontal=1;align=center;verticalAlign=top;fontSize=33;fontStyle=1" vertex="1" parent="1">
          <mxGeometry x="70" y="-190" width="1270" height="390" as="geometry" />
        </mxCell>
        <mxCell id="2X3JBGWOSWir_4q3YpKH-2" value="User Login/Logout(IsPhone/IsIM)" style="rounded=0;whiteSpace=wrap;html=1;fillColor=#eeeeee;strokeColor=#36393d;horizontal=1;align=center;verticalAlign=top;fontSize=33;fontStyle=1" vertex="1" parent="1">
          <mxGeometry x="70" y="270" width="940" height="510" as="geometry" />
        </mxCell>
        <mxCell id="2X3JBGWOSWir_4q3YpKH-6" value="" style="verticalLabelPosition=bottom;verticalAlign=top;html=1;shadow=0;dashed=0;strokeWidth=1;shape=mxgraph.android.phone2;strokeColor=#36393d;fillColor=#330000;" vertex="1" parent="1">
          <mxGeometry x="190" y="420" width="30" height="60" as="geometry" />
        </mxCell>
        <mxCell id="2X3JBGWOSWir_4q3YpKH-7" value="Admin/User" style="aspect=fixed;perimeter=ellipsePerimeter;html=1;align=center;shadow=0;dashed=0;spacingTop=3;image;image=img/lib/active_directory/user_accounts.svg;fillColor=#330000;fontSize=30;" vertex="1" parent="1">
          <mxGeometry x="132.5" y="495.75" width="50" height="48.5" as="geometry" />
        </mxCell>
        <mxCell id="2X3JBGWOSWir_4q3YpKH-13" value="Login/Logout Request" style="endArrow=classic;html=1;fontSize=21;strokeWidth=5;exitX=1.091;exitY=0.46;exitDx=0;exitDy=0;entryX=0;entryY=0.5;entryDx=0;entryDy=0;exitPerimeter=0;dashed=1;dashPattern=1 1;fontStyle=1" edge="1" parent="1" target="2X3JBGWOSWir_4q3YpKH-52">
          <mxGeometry x="-0.0097" y="26" width="50" height="50" relative="1" as="geometry">
            <mxPoint x="238.98250000000007" y="523" as="sourcePoint" />
            <mxPoint x="440" y="520" as="targetPoint" />
            <mxPoint x="-1" as="offset" />
          </mxGeometry>
        </mxCell>
        <mxCell id="2X3JBGWOSWir_4q3YpKH-15" value="" style="aspect=fixed;pointerEvents=1;shadow=0;dashed=0;html=1;strokeColor=none;labelPosition=center;verticalLabelPosition=bottom;verticalAlign=top;align=center;fillColor=#00188D;shape=mxgraph.mscae.enterprise.workstation_client;rounded=0;fontSize=30;" vertex="1" parent="1">
          <mxGeometry x="190" y="495.75" width="50" height="50" as="geometry" />
        </mxCell>
        <mxCell id="2X3JBGWOSWir_4q3YpKH-17" value="" style="points=[[0.59,0,0],[0.87,0.015,0],[0.88,0.3,0],[0.99,0.99,0],[0.5,1,0],[0.01,0.99,0],[0.075,0.5,0],[0.17,0.115,0]];verticalLabelPosition=bottom;html=1;verticalAlign=top;aspect=fixed;align=center;pointerEvents=1;shape=mxgraph.cisco19.ip_phone;fillColor=#005073;strokeColor=none;" vertex="1" parent="1">
          <mxGeometry x="166.25" width="57.49999999999999" height="50" as="geometry" />
        </mxCell>
        <mxCell id="2X3JBGWOSWir_4q3YpKH-18" value="" style="verticalLabelPosition=bottom;verticalAlign=top;html=1;shadow=0;dashed=0;strokeWidth=1;shape=mxgraph.android.phone2;strokeColor=#36393d;fillColor=#330000;" vertex="1" parent="1">
          <mxGeometry x="180" y="-80" width="30" height="60" as="geometry" />
        </mxCell>
        <mxCell id="2X3JBGWOSWir_4q3YpKH-19" value="UserA" style="aspect=fixed;perimeter=ellipsePerimeter;html=1;align=center;shadow=0;dashed=0;spacingTop=3;image;image=img/lib/active_directory/user_accounts.svg;fillColor=#330000;fontSize=30;" vertex="1" parent="1">
          <mxGeometry x="100" y="-4.25" width="50" height="48.5" as="geometry" />
        </mxCell>
        <mxCell id="2X3JBGWOSWir_4q3YpKH-24" value="Audio/Video Stream(RTP)" style="endArrow=classic;html=1;fontSize=21;strokeWidth=5;exitX=1.091;exitY=0.46;exitDx=0;exitDy=0;entryX=0;entryY=0.5;entryDx=0;entryDy=0;exitPerimeter=0;startArrow=classic;startFill=1;dashed=1;dashPattern=1 1;fontStyle=1;fillColor=#dae8fc;strokeColor=#6c8ebf;" edge="1" parent="1" source="2X3JBGWOSWir_4q3YpKH-17" target="2X3JBGWOSWir_4q3YpKH-22">
          <mxGeometry width="50" height="50" relative="1" as="geometry">
            <mxPoint x="240" y="-20" as="sourcePoint" />
            <mxPoint x="430" y="-40" as="targetPoint" />
          </mxGeometry>
        </mxCell>
        <mxCell id="2X3JBGWOSWir_4q3YpKH-25" value="" style="aspect=fixed;pointerEvents=1;shadow=0;dashed=0;html=1;strokeColor=none;labelPosition=center;verticalLabelPosition=bottom;verticalAlign=top;align=center;fillColor=#00188D;shape=mxgraph.mscae.enterprise.workstation_client;rounded=0;fontSize=30;" vertex="1" parent="1">
          <mxGeometry x="174" y="85" width="50" height="50" as="geometry" />
        </mxCell>
        <mxCell id="2X3JBGWOSWir_4q3YpKH-26" value="" style="group" vertex="1" connectable="0" parent="1">
          <mxGeometry x="560" y="-130" width="310" height="310" as="geometry" />
        </mxCell>
        <mxCell id="2X3JBGWOSWir_4q3YpKH-20" value="RCS" style="whiteSpace=wrap;html=1;aspect=fixed;rounded=0;fillColor=#F8CECC;fontSize=30;align=center;fontStyle=1;verticalAlign=top;" vertex="1" parent="2X3JBGWOSWir_4q3YpKH-26">
          <mxGeometry width="310" height="310" as="geometry" />
        </mxCell>
        <mxCell id="2X3JBGWOSWir_4q3YpKH-21" value="UFO" style="rounded=0;whiteSpace=wrap;html=1;fontSize=30;align=center;" vertex="1" parent="2X3JBGWOSWir_4q3YpKH-26">
          <mxGeometry y="133.22" width="310" height="71.03" as="geometry" />
        </mxCell>
        <mxCell id="2X3JBGWOSWir_4q3YpKH-22" value="FS" style="rounded=0;whiteSpace=wrap;html=1;fillColor=#dae8fc;fontSize=30;align=center;strokeColor=#6c8ebf;" vertex="1" parent="2X3JBGWOSWir_4q3YpKH-26">
          <mxGeometry y="204.25" width="310" height="71.03" as="geometry" />
        </mxCell>
        <mxCell id="2X3JBGWOSWir_4q3YpKH-23" value="OF" style="rounded=0;whiteSpace=wrap;html=1;fillColor=#fff2cc;fontSize=30;align=center;strokeColor=#d6b656;" vertex="1" parent="2X3JBGWOSWir_4q3YpKH-26">
          <mxGeometry y="61.19" width="310" height="71.03" as="geometry" />
        </mxCell>
        <mxCell id="2X3JBGWOSWir_4q3YpKH-28" value="Internet" style="endArrow=none;html=1;strokeWidth=5;fontSize=30;entryX=0.008;entryY=0.096;entryDx=0;entryDy=0;entryPerimeter=0;exitX=0.87;exitY=0.015;exitDx=0;exitDy=0;exitPerimeter=0;" edge="1" parent="1" source="2X3JBGWOSWir_4q3YpKH-17" target="2X3JBGWOSWir_4q3YpKH-20">
          <mxGeometry width="50" height="50" relative="1" as="geometry">
            <mxPoint x="270" y="-10" as="sourcePoint" />
            <mxPoint x="320" y="-60" as="targetPoint" />
          </mxGeometry>
        </mxCell>
        <mxCell id="2X3JBGWOSWir_4q3YpKH-29" value="Step 1:MakeCall Request Stream(SIP)" style="endArrow=classic;html=1;fontSize=21;strokeWidth=5;exitX=1.091;exitY=0.46;exitDx=0;exitDy=0;exitPerimeter=0;startArrow=classic;startFill=1;dashed=1;dashPattern=1 1;fillColor=#dae8fc;strokeColor=#6c8ebf;fontStyle=1" edge="1" parent="1" target="2X3JBGWOSWir_4q3YpKH-22">
          <mxGeometry x="-0.0928" y="-22" width="50" height="50" relative="1" as="geometry">
            <mxPoint x="224.00250000000008" y="50" as="sourcePoint" />
            <mxPoint x="425.02" y="104" as="targetPoint" />
            <Array as="points">
              <mxPoint x="250" y="83" />
              <mxPoint x="310" y="130" />
            </Array>
            <mxPoint as="offset" />
          </mxGeometry>
        </mxCell>
        <mxCell id="2X3JBGWOSWir_4q3YpKH-38" value="UserB" style="aspect=fixed;perimeter=ellipsePerimeter;html=1;align=center;shadow=0;dashed=0;spacingTop=3;image;image=img/lib/active_directory/user_accounts.svg;fillColor=#330000;fontSize=30;" vertex="1" parent="1">
          <mxGeometry x="1270" y="-22.5" width="50" height="48.5" as="geometry" />
        </mxCell>
        <mxCell id="2X3JBGWOSWir_4q3YpKH-39" value="" style="verticalLabelPosition=bottom;verticalAlign=top;html=1;shadow=0;dashed=0;strokeWidth=1;shape=mxgraph.android.phone2;strokeColor=#36393d;fillColor=#330000;" vertex="1" parent="1">
          <mxGeometry x="1200" y="-102.5" width="30" height="60" as="geometry" />
        </mxCell>
        <mxCell id="2X3JBGWOSWir_4q3YpKH-40" value="" style="points=[[0.59,0,0],[0.87,0.015,0],[0.88,0.3,0],[0.99,0.99,0],[0.5,1,0],[0.01,0.99,0],[0.075,0.5,0],[0.17,0.115,0]];verticalLabelPosition=bottom;html=1;verticalAlign=top;aspect=fixed;align=center;pointerEvents=1;shape=mxgraph.cisco19.ip_phone;fillColor=#005073;strokeColor=none;" vertex="1" parent="1">
          <mxGeometry x="1186.25" y="-22.5" width="57.49999999999999" height="50" as="geometry" />
        </mxCell>
        <mxCell id="2X3JBGWOSWir_4q3YpKH-41" value="" style="aspect=fixed;pointerEvents=1;shadow=0;dashed=0;html=1;strokeColor=none;labelPosition=center;verticalLabelPosition=bottom;verticalAlign=top;align=center;fillColor=#00188D;shape=mxgraph.mscae.enterprise.workstation_client;rounded=0;fontSize=30;" vertex="1" parent="1">
          <mxGeometry x="1194" y="62.5" width="50" height="50" as="geometry" />
        </mxCell>
        <mxCell id="2X3JBGWOSWir_4q3YpKH-42" value="Internet" style="endArrow=none;html=1;strokeWidth=5;fontSize=30;entryX=1;entryY=0.094;entryDx=0;entryDy=0;entryPerimeter=0;exitX=0.065;exitY=0.25;exitDx=0;exitDy=0;exitPerimeter=0;" edge="1" parent="1" source="2X3JBGWOSWir_4q3YpKH-40" target="2X3JBGWOSWir_4q3YpKH-20">
          <mxGeometry width="50" height="50" relative="1" as="geometry">
            <mxPoint x="1216.2" y="-150" as="sourcePoint" />
            <mxPoint x="869.9950000000001" y="-29.01" as="targetPoint" />
          </mxGeometry>
        </mxCell>
        <mxCell id="2X3JBGWOSWir_4q3YpKH-43" value="Audio/Video Stream(RTP)" style="endArrow=classic;html=1;fontSize=21;strokeWidth=5;entryX=1;entryY=0.25;entryDx=0;entryDy=0;startArrow=classic;startFill=1;dashed=1;dashPattern=1 1;fontStyle=1;fillColor=#dae8fc;strokeColor=#6c8ebf;" edge="1" parent="1" source="2X3JBGWOSWir_4q3YpKH-40" target="2X3JBGWOSWir_4q3YpKH-22">
          <mxGeometry width="50" height="50" relative="1" as="geometry">
            <mxPoint x="1213.72" y="53.44872274143289" as="sourcePoint" />
            <mxPoint x="882.7025000000001" y="-6.760000000000002" as="targetPoint" />
            <Array as="points">
              <mxPoint x="1010" y="20" />
            </Array>
          </mxGeometry>
        </mxCell>
        <mxCell id="2X3JBGWOSWir_4q3YpKH-44" value="Step 2:Call Stream(SIP)" style="endArrow=classic;html=1;fontSize=21;strokeWidth=5;exitX=0.048;exitY=0.87;exitDx=0;exitDy=0;exitPerimeter=0;startArrow=classic;startFill=1;entryX=0.997;entryY=0.658;entryDx=0;entryDy=0;entryPerimeter=0;dashed=1;dashPattern=1 1;fillColor=#dae8fc;strokeColor=#6c8ebf;fontStyle=1" edge="1" parent="1" source="2X3JBGWOSWir_4q3YpKH-40" target="2X3JBGWOSWir_4q3YpKH-22">
          <mxGeometry x="0.0042" y="27" width="50" height="50" relative="1" as="geometry">
            <mxPoint x="1213.72" y="62.50509898502649" as="sourcePoint" />
            <mxPoint x="877.7225000000001" y="20.24" as="targetPoint" />
            <Array as="points">
              <mxPoint x="1080" y="80" />
              <mxPoint x="963.72" y="100.24" />
            </Array>
            <mxPoint as="offset" />
          </mxGeometry>
        </mxCell>
        <mxCell id="2X3JBGWOSWir_4q3YpKH-49" value="Internet" style="endArrow=none;html=1;strokeWidth=5;fontSize=30;entryX=-0.005;entryY=0.111;entryDx=0;entryDy=0;entryPerimeter=0;exitX=0.87;exitY=0.015;exitDx=0;exitDy=0;exitPerimeter=0;" edge="1" parent="1" target="2X3JBGWOSWir_4q3YpKH-51">
          <mxGeometry width="50" height="50" relative="1" as="geometry">
            <mxPoint x="226.2750000000001" y="500.75" as="sourcePoint" />
            <mxPoint x="446.20000000000005" y="400" as="targetPoint" />
          </mxGeometry>
        </mxCell>
        <mxCell id="2X3JBGWOSWir_4q3YpKH-50" value="" style="group;" vertex="1" connectable="0" parent="1">
          <mxGeometry x="560" y="380" width="310" height="310" as="geometry" />
        </mxCell>
        <mxCell id="2X3JBGWOSWir_4q3YpKH-51" value="RCS" style="whiteSpace=wrap;html=1;aspect=fixed;rounded=0;fillColor=#F8CECC;fontSize=30;align=center;fontStyle=1;verticalAlign=top;" vertex="1" parent="2X3JBGWOSWir_4q3YpKH-50">
          <mxGeometry width="310" height="310" as="geometry" />
        </mxCell>
        <mxCell id="2X3JBGWOSWir_4q3YpKH-52" value="UFO" style="rounded=0;whiteSpace=wrap;html=1;fontSize=30;align=center;" vertex="1" parent="2X3JBGWOSWir_4q3YpKH-50">
          <mxGeometry y="133.22" width="310" height="71.03" as="geometry" />
        </mxCell>
        <mxCell id="2X3JBGWOSWir_4q3YpKH-53" value="FS" style="rounded=0;whiteSpace=wrap;html=1;fillColor=#dae8fc;fontSize=30;align=center;strokeColor=#6c8ebf;" vertex="1" parent="2X3JBGWOSWir_4q3YpKH-50">
          <mxGeometry y="204.25" width="310" height="71.03" as="geometry" />
        </mxCell>
        <mxCell id="2X3JBGWOSWir_4q3YpKH-54" value="OF" style="rounded=0;whiteSpace=wrap;html=1;fillColor=#fff2cc;fontSize=30;align=center;strokeColor=#d6b656;" vertex="1" parent="2X3JBGWOSWir_4q3YpKH-50">
          <mxGeometry y="61.19" width="310" height="71.03" as="geometry" />
        </mxCell>
        <mxCell id="2X3JBGWOSWir_4q3YpKH-55" value="Result" style="endArrow=none;html=1;fontSize=21;strokeWidth=5;exitX=1.091;exitY=0.46;exitDx=0;exitDy=0;entryX=0;entryY=0.5;entryDx=0;entryDy=0;exitPerimeter=0;startArrow=classic;startFill=1;endFill=0;dashed=1;dashPattern=1 1;fontStyle=1" edge="1" parent="1">
          <mxGeometry width="50" height="50" relative="1" as="geometry">
            <mxPoint x="248.98250000000007" y="533" as="sourcePoint" />
            <mxPoint x="570" y="543.7350000000001" as="targetPoint" />
            <Array as="points">
              <mxPoint x="310" y="580" />
              <mxPoint x="400" y="590" />
              <mxPoint x="490" y="590" />
            </Array>
          </mxGeometry>
        </mxCell>
        <mxCell id="2X3JBGWOSWir_4q3YpKH-56" value="Scheduling methd 1 Ctl FS(Call UserA&amp;nbsp; then Call UserB ,A and B talking)" style="rounded=0;whiteSpace=wrap;html=1;fillColor=#eeeeee;strokeColor=#36393d;horizontal=1;align=center;verticalAlign=top;fontSize=33;fontStyle=1" vertex="1" parent="1">
          <mxGeometry x="60" y="1480" width="1440" height="490" as="geometry" />
        </mxCell>
        <mxCell id="2X3JBGWOSWir_4q3YpKH-58" value="" style="verticalLabelPosition=bottom;verticalAlign=top;html=1;shadow=0;dashed=0;strokeWidth=1;shape=mxgraph.android.phone2;strokeColor=#36393d;fillColor=#330000;" vertex="1" parent="1">
          <mxGeometry x="170" y="1590" width="30" height="60" as="geometry" />
        </mxCell>
        <mxCell id="2X3JBGWOSWir_4q3YpKH-59" value="Admin" style="aspect=fixed;perimeter=ellipsePerimeter;html=1;align=center;shadow=0;dashed=0;spacingTop=3;image;image=img/lib/active_directory/user_accounts.svg;fillColor=#330000;fontSize=30;" vertex="1" parent="1">
          <mxGeometry x="90" y="1665.75" width="50" height="48.5" as="geometry" />
        </mxCell>
        <mxCell id="2X3JBGWOSWir_4q3YpKH-60" value="Restfull API Stream(WAMP)" style="endArrow=classic;html=1;fontSize=21;strokeWidth=5;exitX=1.091;exitY=0.46;exitDx=0;exitDy=0;exitPerimeter=0;startArrow=none;startFill=0;dashed=1;dashPattern=1 1;fontStyle=1" edge="1" parent="1" target="2X3JBGWOSWir_4q3YpKH-64">
          <mxGeometry x="-0.0119" y="-30" width="50" height="50" relative="1" as="geometry">
            <mxPoint x="218.98250000000007" y="1693" as="sourcePoint" />
            <mxPoint x="420" y="1630" as="targetPoint" />
            <Array as="points">
              <mxPoint x="390" y="1710" />
            </Array>
            <mxPoint x="-12" y="3" as="offset" />
          </mxGeometry>
        </mxCell>
        <mxCell id="2X3JBGWOSWir_4q3YpKH-61" value="" style="aspect=fixed;pointerEvents=1;shadow=0;dashed=0;html=1;strokeColor=none;labelPosition=center;verticalLabelPosition=bottom;verticalAlign=top;align=center;fillColor=#00188D;shape=mxgraph.mscae.enterprise.workstation_client;rounded=0;fontSize=30;" vertex="1" parent="1">
          <mxGeometry x="166.25" y="1685" width="50" height="50" as="geometry" />
        </mxCell>
        <mxCell id="2X3JBGWOSWir_4q3YpKH-62" value="" style="group" vertex="1" connectable="0" parent="1">
          <mxGeometry x="550" y="1540" width="310" height="310" as="geometry" />
        </mxCell>
        <mxCell id="2X3JBGWOSWir_4q3YpKH-63" value="RCS" style="whiteSpace=wrap;html=1;aspect=fixed;rounded=0;fillColor=#F8CECC;fontSize=30;align=center;fontStyle=1;verticalAlign=top;" vertex="1" parent="2X3JBGWOSWir_4q3YpKH-62">
          <mxGeometry width="310" height="310" as="geometry" />
        </mxCell>
        <mxCell id="2X3JBGWOSWir_4q3YpKH-64" value="UFO" style="rounded=0;whiteSpace=wrap;html=1;fontSize=30;align=center;" vertex="1" parent="2X3JBGWOSWir_4q3YpKH-62">
          <mxGeometry y="133.22" width="310" height="71.03" as="geometry" />
        </mxCell>
        <mxCell id="2X3JBGWOSWir_4q3YpKH-65" value="FS" style="rounded=0;whiteSpace=wrap;html=1;fillColor=#dae8fc;fontSize=30;align=center;strokeColor=#6c8ebf;" vertex="1" parent="2X3JBGWOSWir_4q3YpKH-62">
          <mxGeometry y="204.25" width="310" height="71.03" as="geometry" />
        </mxCell>
        <mxCell id="2X3JBGWOSWir_4q3YpKH-66" value="OF" style="rounded=0;whiteSpace=wrap;html=1;fillColor=#fff2cc;fontSize=30;align=center;strokeColor=#d6b656;" vertex="1" parent="2X3JBGWOSWir_4q3YpKH-62">
          <mxGeometry y="61.19" width="310" height="71.03" as="geometry" />
        </mxCell>
        <mxCell id="2X3JBGWOSWir_4q3YpKH-67" value="Internet" style="endArrow=none;html=1;strokeWidth=5;fontSize=30;entryX=0.008;entryY=0.096;entryDx=0;entryDy=0;entryPerimeter=0;exitX=0.87;exitY=0.015;exitDx=0;exitDy=0;exitPerimeter=0;" edge="1" parent="1" target="2X3JBGWOSWir_4q3YpKH-63">
          <mxGeometry width="50" height="50" relative="1" as="geometry">
            <mxPoint x="206.27500000000032" y="1670.75" as="sourcePoint" />
            <mxPoint x="310" y="1610" as="targetPoint" />
          </mxGeometry>
        </mxCell>
        <mxCell id="2X3JBGWOSWir_4q3YpKH-73" value="Internet" style="endArrow=none;html=1;strokeWidth=5;fontSize=30;entryX=1;entryY=0.094;entryDx=0;entryDy=0;entryPerimeter=0;exitX=0.065;exitY=0.25;exitDx=0;exitDy=0;exitPerimeter=0;" edge="1" parent="1" target="2X3JBGWOSWir_4q3YpKH-63">
          <mxGeometry width="50" height="50" relative="1" as="geometry">
            <mxPoint x="1179.9875000000002" y="1660" as="sourcePoint" />
            <mxPoint x="859.9950000000001" y="1640.99" as="targetPoint" />
          </mxGeometry>
        </mxCell>
        <mxCell id="2X3JBGWOSWir_4q3YpKH-74" value="Step 2:Call UserA(SIP/RTP)&lt;br&gt;" style="endArrow=classic;html=1;fontSize=21;strokeWidth=5;startArrow=classic;startFill=1;dashed=1;dashPattern=1 1;fontStyle=1;entryX=1;entryY=0.75;entryDx=0;entryDy=0;fillColor=#dae8fc;strokeColor=#6c8ebf;exitX=0;exitY=1;exitDx=0;exitDy=0;exitPerimeter=0;" edge="1" parent="1" source="2X3JBGWOSWir_4q3YpKH-72" target="2X3JBGWOSWir_4q3YpKH-65">
          <mxGeometry x="-0.2023" y="23" width="50" height="50" relative="1" as="geometry">
            <mxPoint x="1176.25" y="1677.0178571428569" as="sourcePoint" />
            <mxPoint x="872.7025000000001" y="1663.24" as="targetPoint" />
            <Array as="points">
              <mxPoint x="1030" y="1700" />
            </Array>
            <mxPoint as="offset" />
          </mxGeometry>
        </mxCell>
        <mxCell id="2X3JBGWOSWir_4q3YpKH-89" value="" style="group" vertex="1" connectable="0" parent="1">
          <mxGeometry x="1182.5" y="1562" width="107.5" height="150" as="geometry" />
        </mxCell>
        <mxCell id="2X3JBGWOSWir_4q3YpKH-69" value="UserA" style="aspect=fixed;perimeter=ellipsePerimeter;html=1;align=center;shadow=0;dashed=0;spacingTop=3;image;image=img/lib/active_directory/user_accounts.svg;fillColor=#330000;fontSize=30;" vertex="1" parent="2X3JBGWOSWir_4q3YpKH-89">
          <mxGeometry x="65.34313725490196" y="49.390243902439025" width="35.130718954248366" height="34.076797385620914" as="geometry" />
        </mxCell>
        <mxCell id="2X3JBGWOSWir_4q3YpKH-70" value="" style="verticalLabelPosition=bottom;verticalAlign=top;html=1;shadow=0;dashed=0;strokeWidth=1;shape=mxgraph.android.phone2;strokeColor=#36393d;fillColor=#330000;" vertex="1" parent="2X3JBGWOSWir_4q3YpKH-89">
          <mxGeometry x="6.323529411764706" width="25.294117647058822" height="43.90243902439024" as="geometry" />
        </mxCell>
        <mxCell id="2X3JBGWOSWir_4q3YpKH-72" value="" style="aspect=fixed;pointerEvents=1;shadow=0;dashed=0;html=1;strokeColor=none;labelPosition=center;verticalLabelPosition=bottom;verticalAlign=top;align=center;fillColor=#00188D;shape=mxgraph.mscae.enterprise.workstation_client;rounded=0;fontSize=30;" vertex="1" parent="2X3JBGWOSWir_4q3YpKH-89">
          <mxGeometry x="6.323529411764706" y="59.268292682926834" width="35.130718954248366" height="35.130718954248366" as="geometry" />
        </mxCell>
        <mxCell id="2X3JBGWOSWir_4q3YpKH-81" value="" style="points=[[0.59,0,0],[0.87,0.015,0],[0.88,0.3,0],[0.99,0.99,0],[0.5,1,0],[0.01,0.99,0],[0.075,0.5,0],[0.17,0.115,0]];verticalLabelPosition=bottom;html=1;verticalAlign=top;aspect=fixed;align=center;pointerEvents=1;shape=mxgraph.cisco19.ip_phone;fillColor=#005073;strokeColor=none;" vertex="1" parent="2X3JBGWOSWir_4q3YpKH-89">
          <mxGeometry y="113.41463414634147" width="40.40032679738562" height="35.130718954248366" as="geometry" />
        </mxCell>
        <mxCell id="2X3JBGWOSWir_4q3YpKH-90" value="" style="group" vertex="1" connectable="0" parent="1">
          <mxGeometry x="1192.5" y="1799" width="107.5" height="150" as="geometry" />
        </mxCell>
        <mxCell id="2X3JBGWOSWir_4q3YpKH-91" value="UserB" style="aspect=fixed;perimeter=ellipsePerimeter;html=1;align=center;shadow=0;dashed=0;spacingTop=3;image;image=img/lib/active_directory/user_accounts.svg;fillColor=#330000;fontSize=30;" vertex="1" parent="2X3JBGWOSWir_4q3YpKH-90">
          <mxGeometry x="65.34313725490196" y="49.390243902439025" width="35.130718954248366" height="34.076797385620914" as="geometry" />
        </mxCell>
        <mxCell id="2X3JBGWOSWir_4q3YpKH-92" value="" style="verticalLabelPosition=bottom;verticalAlign=top;html=1;shadow=0;dashed=0;strokeWidth=1;shape=mxgraph.android.phone2;strokeColor=#36393d;fillColor=#330000;" vertex="1" parent="2X3JBGWOSWir_4q3YpKH-90">
          <mxGeometry x="6.323529411764706" width="25.294117647058822" height="43.90243902439024" as="geometry" />
        </mxCell>
        <mxCell id="2X3JBGWOSWir_4q3YpKH-93" value="" style="aspect=fixed;pointerEvents=1;shadow=0;dashed=0;html=1;strokeColor=none;labelPosition=center;verticalLabelPosition=bottom;verticalAlign=top;align=center;fillColor=#00188D;shape=mxgraph.mscae.enterprise.workstation_client;rounded=0;fontSize=30;" vertex="1" parent="2X3JBGWOSWir_4q3YpKH-90">
          <mxGeometry x="6.323529411764706" y="59.268292682926834" width="35.130718954248366" height="35.130718954248366" as="geometry" />
        </mxCell>
        <mxCell id="2X3JBGWOSWir_4q3YpKH-94" value="" style="points=[[0.59,0,0],[0.87,0.015,0],[0.88,0.3,0],[0.99,0.99,0],[0.5,1,0],[0.01,0.99,0],[0.075,0.5,0],[0.17,0.115,0]];verticalLabelPosition=bottom;html=1;verticalAlign=top;aspect=fixed;align=center;pointerEvents=1;shape=mxgraph.cisco19.ip_phone;fillColor=#005073;strokeColor=none;" vertex="1" parent="2X3JBGWOSWir_4q3YpKH-90">
          <mxGeometry y="113.41463414634147" width="40.40032679738562" height="35.130718954248366" as="geometry" />
        </mxCell>
        <mxCell id="2X3JBGWOSWir_4q3YpKH-97" value="Internet" style="endArrow=none;html=1;strokeWidth=5;fontSize=30;entryX=1;entryY=0.094;entryDx=0;entryDy=0;entryPerimeter=0;exitX=0.5;exitY=1;exitDx=0;exitDy=0;exitPerimeter=0;" edge="1" parent="1">
          <mxGeometry x="0.4239" y="-6" width="50" height="50" relative="1" as="geometry">
            <mxPoint x="1212.3888888888887" y="1888.3990116371747" as="sourcePoint" />
            <mxPoint x="866" y="1574.1399999999999" as="targetPoint" />
            <mxPoint as="offset" />
          </mxGeometry>
        </mxCell>
        <mxCell id="2X3JBGWOSWir_4q3YpKH-98" value="Step 3:Call UserB(SIP/RTP)&lt;br&gt;" style="endArrow=classic;html=1;fontSize=21;strokeWidth=5;entryX=1;entryY=0.75;entryDx=0;entryDy=0;startArrow=classic;startFill=1;dashed=1;dashPattern=1 1;fontStyle=1;exitX=0.366;exitY=0.695;exitDx=0;exitDy=0;exitPerimeter=0;fillColor=#dae8fc;strokeColor=#6c8ebf;" edge="1" parent="1" source="2X3JBGWOSWir_4q3YpKH-93" target="2X3JBGWOSWir_4q3YpKH-65">
          <mxGeometry x="0.1678" y="13" width="50" height="50" relative="1" as="geometry">
            <mxPoint x="1186.25" y="1687.0178571428569" as="sourcePoint" />
            <mxPoint x="870" y="1646.705" as="targetPoint" />
            <Array as="points">
              <mxPoint x="960" y="1840" />
            </Array>
            <mxPoint as="offset" />
          </mxGeometry>
        </mxCell>
        <mxCell id="2X3JBGWOSWir_4q3YpKH-99" value="Single IM (UserA&amp;nbsp; Send The Msg/File To UserB )" style="rounded=0;whiteSpace=wrap;html=1;fillColor=#eeeeee;strokeColor=#36393d;horizontal=1;align=center;verticalAlign=top;fontSize=33;fontStyle=1" vertex="1" parent="1">
          <mxGeometry x="70" y="860" width="1260" height="410" as="geometry" />
        </mxCell>
        <mxCell id="2X3JBGWOSWir_4q3YpKH-100" value="" style="verticalLabelPosition=bottom;verticalAlign=top;html=1;shadow=0;dashed=0;strokeWidth=1;shape=mxgraph.android.phone2;strokeColor=#36393d;fillColor=#330000;" vertex="1" parent="1">
          <mxGeometry x="180" y="970" width="30" height="60" as="geometry" />
        </mxCell>
        <mxCell id="2X3JBGWOSWir_4q3YpKH-101" value="UserA" style="aspect=fixed;perimeter=ellipsePerimeter;html=1;align=center;shadow=0;dashed=0;spacingTop=3;image;image=img/lib/active_directory/user_accounts.svg;fillColor=#330000;fontSize=30;" vertex="1" parent="1">
          <mxGeometry x="100" y="1045.75" width="50" height="48.5" as="geometry" />
        </mxCell>
        <mxCell id="2X3JBGWOSWir_4q3YpKH-102" value="step 1:Send Msg/File(XMPP)" style="endArrow=classic;html=1;fontSize=21;strokeWidth=5;exitX=1.091;exitY=0.46;exitDx=0;exitDy=0;entryX=0;entryY=0.5;entryDx=0;entryDy=0;exitPerimeter=0;startArrow=classic;startFill=1;dashed=1;dashPattern=1 1;fontStyle=1;fillColor=#fff2cc;strokeColor=#d6b656;" edge="1" target="2X3JBGWOSWir_4q3YpKH-108" parent="1">
          <mxGeometry x="-0.0119" y="-30" width="50" height="50" relative="1" as="geometry">
            <mxPoint x="228.98250000000007" y="1073" as="sourcePoint" />
            <mxPoint x="430" y="1010" as="targetPoint" />
            <Array as="points">
              <mxPoint x="400" y="1090" />
            </Array>
            <mxPoint x="-12" y="3" as="offset" />
          </mxGeometry>
        </mxCell>
        <mxCell id="2X3JBGWOSWir_4q3YpKH-103" value="" style="aspect=fixed;pointerEvents=1;shadow=0;dashed=0;html=1;strokeColor=none;labelPosition=center;verticalLabelPosition=bottom;verticalAlign=top;align=center;fillColor=#00188D;shape=mxgraph.mscae.enterprise.workstation_client;rounded=0;fontSize=30;" vertex="1" parent="1">
          <mxGeometry x="176.25" y="1065" width="50" height="50" as="geometry" />
        </mxCell>
        <mxCell id="2X3JBGWOSWir_4q3YpKH-104" value="" style="group" vertex="1" connectable="0" parent="1">
          <mxGeometry x="560" y="920" width="310" height="310" as="geometry" />
        </mxCell>
        <mxCell id="2X3JBGWOSWir_4q3YpKH-105" value="RCS" style="whiteSpace=wrap;html=1;aspect=fixed;rounded=0;fillColor=#F8CECC;fontSize=30;align=center;fontStyle=1;verticalAlign=top;" vertex="1" parent="2X3JBGWOSWir_4q3YpKH-104">
          <mxGeometry width="310" height="310" as="geometry" />
        </mxCell>
        <mxCell id="2X3JBGWOSWir_4q3YpKH-106" value="UFO" style="rounded=0;whiteSpace=wrap;html=1;fontSize=30;align=center;" vertex="1" parent="2X3JBGWOSWir_4q3YpKH-104">
          <mxGeometry y="133.22" width="310" height="71.03" as="geometry" />
        </mxCell>
        <mxCell id="2X3JBGWOSWir_4q3YpKH-107" value="FS" style="rounded=0;whiteSpace=wrap;html=1;fillColor=#dae8fc;fontSize=30;align=center;strokeColor=#6c8ebf;" vertex="1" parent="2X3JBGWOSWir_4q3YpKH-104">
          <mxGeometry y="204.25" width="310" height="71.03" as="geometry" />
        </mxCell>
        <mxCell id="2X3JBGWOSWir_4q3YpKH-108" value="OF" style="rounded=0;whiteSpace=wrap;html=1;fillColor=#fff2cc;fontSize=30;align=center;strokeColor=#d6b656;" vertex="1" parent="2X3JBGWOSWir_4q3YpKH-104">
          <mxGeometry y="61.19" width="310" height="71.03" as="geometry" />
        </mxCell>
        <mxCell id="2X3JBGWOSWir_4q3YpKH-109" value="Internet" style="endArrow=none;html=1;strokeWidth=5;fontSize=30;entryX=0.008;entryY=0.096;entryDx=0;entryDy=0;entryPerimeter=0;exitX=0.87;exitY=0.015;exitDx=0;exitDy=0;exitPerimeter=0;" edge="1" target="2X3JBGWOSWir_4q3YpKH-105" parent="1">
          <mxGeometry width="50" height="50" relative="1" as="geometry">
            <mxPoint x="216.27500000000032" y="1050.75" as="sourcePoint" />
            <mxPoint x="320" y="990" as="targetPoint" />
          </mxGeometry>
        </mxCell>
        <mxCell id="2X3JBGWOSWir_4q3YpKH-110" value="Internet" style="endArrow=none;html=1;strokeWidth=5;fontSize=30;entryX=1;entryY=0.094;entryDx=0;entryDy=0;entryPerimeter=0;exitX=0.065;exitY=0.25;exitDx=0;exitDy=0;exitPerimeter=0;" edge="1" target="2X3JBGWOSWir_4q3YpKH-105" parent="1">
          <mxGeometry width="50" height="50" relative="1" as="geometry">
            <mxPoint x="1189.9875000000002" y="1040.0000000000005" as="sourcePoint" />
            <mxPoint x="869.9950000000001" y="1020.99" as="targetPoint" />
          </mxGeometry>
        </mxCell>
        <mxCell id="2X3JBGWOSWir_4q3YpKH-111" value="Step 2:Recive Msg/File(XMPP)&lt;br&gt;" style="endArrow=classic;html=1;fontSize=21;strokeWidth=5;startArrow=classic;startFill=1;dashed=1;dashPattern=1 1;fontStyle=1;entryX=1;entryY=0.5;entryDx=0;entryDy=0;fillColor=#fff2cc;strokeColor=#d6b656;" edge="1" target="2X3JBGWOSWir_4q3YpKH-108" parent="1">
          <mxGeometry x="-0.2023" y="23" width="50" height="50" relative="1" as="geometry">
            <mxPoint x="1186.25" y="1057.0178571428569" as="sourcePoint" />
            <mxPoint x="882.7025000000001" y="1043.24" as="targetPoint" />
            <Array as="points">
              <mxPoint x="1040" y="1080" />
            </Array>
            <mxPoint as="offset" />
          </mxGeometry>
        </mxCell>
        <mxCell id="2X3JBGWOSWir_4q3YpKH-112" value="" style="group" vertex="1" connectable="0" parent="1">
          <mxGeometry x="1192.5" y="990" width="107.5" height="150" as="geometry" />
        </mxCell>
        <mxCell id="2X3JBGWOSWir_4q3YpKH-113" value="UserB" style="aspect=fixed;perimeter=ellipsePerimeter;html=1;align=center;shadow=0;dashed=0;spacingTop=3;image;image=img/lib/active_directory/user_accounts.svg;fillColor=#330000;fontSize=30;" vertex="1" parent="2X3JBGWOSWir_4q3YpKH-112">
          <mxGeometry x="65.34313725490196" y="49.390243902439025" width="35.130718954248366" height="34.076797385620914" as="geometry" />
        </mxCell>
        <mxCell id="2X3JBGWOSWir_4q3YpKH-114" value="" style="verticalLabelPosition=bottom;verticalAlign=top;html=1;shadow=0;dashed=0;strokeWidth=1;shape=mxgraph.android.phone2;strokeColor=#36393d;fillColor=#330000;" vertex="1" parent="2X3JBGWOSWir_4q3YpKH-112">
          <mxGeometry x="6.323529411764706" width="25.294117647058822" height="43.90243902439024" as="geometry" />
        </mxCell>
        <mxCell id="2X3JBGWOSWir_4q3YpKH-115" value="" style="aspect=fixed;pointerEvents=1;shadow=0;dashed=0;html=1;strokeColor=none;labelPosition=center;verticalLabelPosition=bottom;verticalAlign=top;align=center;fillColor=#00188D;shape=mxgraph.mscae.enterprise.workstation_client;rounded=0;fontSize=30;" vertex="1" parent="2X3JBGWOSWir_4q3YpKH-112">
          <mxGeometry x="6.323529411764706" y="59.268292682926834" width="35.130718954248366" height="35.130718954248366" as="geometry" />
        </mxCell>
        <mxCell id="2X3JBGWOSWir_4q3YpKH-116" value="" style="points=[[0.59,0,0],[0.87,0.015,0],[0.88,0.3,0],[0.99,0.99,0],[0.5,1,0],[0.01,0.99,0],[0.075,0.5,0],[0.17,0.115,0]];verticalLabelPosition=bottom;html=1;verticalAlign=top;aspect=fixed;align=center;pointerEvents=1;shape=mxgraph.cisco19.ip_phone;fillColor=#005073;strokeColor=none;" vertex="1" parent="2X3JBGWOSWir_4q3YpKH-112">
          <mxGeometry y="113.41463414634147" width="40.40032679738562" height="35.130718954248366" as="geometry" />
        </mxCell>
        <mxCell id="2X3JBGWOSWir_4q3YpKH-124" value="Step 1:Call Request&amp;nbsp;" style="text;html=1;strokeColor=none;fillColor=none;align=center;verticalAlign=middle;whiteSpace=wrap;rounded=0;fontSize=21;fontStyle=1" vertex="1" parent="1">
          <mxGeometry x="270" y="1684" width="230" height="20" as="geometry" />
        </mxCell>
        <mxCell id="2X3JBGWOSWir_4q3YpKH-127" value="Result" style="endArrow=none;html=1;fontSize=21;strokeWidth=5;exitX=1.091;exitY=0.46;exitDx=0;exitDy=0;exitPerimeter=0;startArrow=classic;startFill=1;dashed=1;dashPattern=1 1;fontStyle=1;endFill=0;" edge="1" parent="1">
          <mxGeometry x="0.0464" y="-10" width="50" height="50" relative="1" as="geometry">
            <mxPoint x="228.98250000000007" y="1703" as="sourcePoint" />
            <mxPoint x="560" y="1719.3574603174602" as="targetPoint" />
            <Array as="points">
              <mxPoint x="400" y="1800" />
            </Array>
            <mxPoint x="-4" y="1" as="offset" />
          </mxGeometry>
        </mxCell>
        <mxCell id="2X3JBGWOSWir_4q3YpKH-128" value="Step 4:A and B Talking" style="endArrow=classic;html=1;fontSize=25;strokeWidth=5;startArrow=classic;startFill=1;dashed=1;dashPattern=1 1;fontStyle=1;fillColor=#dae8fc;strokeColor=#6c8ebf;" edge="1" parent="1">
          <mxGeometry x="-0.0582" y="12" width="50" height="50" relative="1" as="geometry">
            <mxPoint x="1264.8671893813148" y="1689.3424073269866" as="sourcePoint" />
            <mxPoint x="1272.3179066168018" y="1850.7446151925642" as="targetPoint" />
            <Array as="points">
              <mxPoint x="1328" y="1760" />
            </Array>
            <mxPoint x="2" y="-7" as="offset" />
          </mxGeometry>
        </mxCell>
        <mxCell id="2X3JBGWOSWir_4q3YpKH-129" value="Restfull API Stream(WAMP)" style="text;html=1;strokeColor=none;fillColor=none;align=center;verticalAlign=middle;whiteSpace=wrap;rounded=0;fontSize=21;fontStyle=1" vertex="1" parent="1">
          <mxGeometry x="260" y="550" width="290" height="20" as="geometry" />
        </mxCell>
        <mxCell id="2X3JBGWOSWir_4q3YpKH-130" value="Scheduling method 2 Ctl VOIP Phone (UserA&amp;nbsp; Call UserB ,A and B talking)" style="rounded=0;whiteSpace=wrap;html=1;fillColor=#eeeeee;strokeColor=#36393d;horizontal=1;align=center;verticalAlign=top;fontSize=33;fontStyle=1" vertex="1" parent="1">
          <mxGeometry x="60" y="2100" width="1440" height="490" as="geometry" />
        </mxCell>
        <mxCell id="2X3JBGWOSWir_4q3YpKH-131" value="" style="verticalLabelPosition=bottom;verticalAlign=top;html=1;shadow=0;dashed=0;strokeWidth=1;shape=mxgraph.android.phone2;strokeColor=#36393d;fillColor=#330000;" vertex="1" parent="1">
          <mxGeometry x="170" y="2210" width="30" height="60" as="geometry" />
        </mxCell>
        <mxCell id="2X3JBGWOSWir_4q3YpKH-132" value="Admin" style="aspect=fixed;perimeter=ellipsePerimeter;html=1;align=center;shadow=0;dashed=0;spacingTop=3;image;image=img/lib/active_directory/user_accounts.svg;fillColor=#330000;fontSize=30;" vertex="1" parent="1">
          <mxGeometry x="90" y="2285.75" width="50" height="48.5" as="geometry" />
        </mxCell>
        <mxCell id="2X3JBGWOSWir_4q3YpKH-133" value="Restfull API Stream(WAMP)" style="endArrow=classic;html=1;fontSize=21;strokeWidth=5;exitX=1.091;exitY=0.46;exitDx=0;exitDy=0;exitPerimeter=0;startArrow=none;startFill=0;dashed=1;dashPattern=1 1;fontStyle=1" edge="1" parent="1" target="2X3JBGWOSWir_4q3YpKH-137">
          <mxGeometry x="-0.0119" y="-30" width="50" height="50" relative="1" as="geometry">
            <mxPoint x="218.98250000000007" y="2313" as="sourcePoint" />
            <mxPoint x="420" y="2250" as="targetPoint" />
            <Array as="points">
              <mxPoint x="390" y="2330" />
            </Array>
            <mxPoint x="-12" y="3" as="offset" />
          </mxGeometry>
        </mxCell>
        <mxCell id="2X3JBGWOSWir_4q3YpKH-134" value="" style="aspect=fixed;pointerEvents=1;shadow=0;dashed=0;html=1;strokeColor=none;labelPosition=center;verticalLabelPosition=bottom;verticalAlign=top;align=center;fillColor=#00188D;shape=mxgraph.mscae.enterprise.workstation_client;rounded=0;fontSize=30;" vertex="1" parent="1">
          <mxGeometry x="166.25" y="2305" width="50" height="50" as="geometry" />
        </mxCell>
        <mxCell id="2X3JBGWOSWir_4q3YpKH-135" value="" style="group" vertex="1" connectable="0" parent="1">
          <mxGeometry x="550" y="2160" width="310" height="310" as="geometry" />
        </mxCell>
        <mxCell id="2X3JBGWOSWir_4q3YpKH-136" value="RCS" style="whiteSpace=wrap;html=1;aspect=fixed;rounded=0;fillColor=#F8CECC;fontSize=30;align=center;fontStyle=1;verticalAlign=top;" vertex="1" parent="2X3JBGWOSWir_4q3YpKH-135">
          <mxGeometry width="310" height="310" as="geometry" />
        </mxCell>
        <mxCell id="2X3JBGWOSWir_4q3YpKH-137" value="UFO" style="rounded=0;whiteSpace=wrap;html=1;fontSize=30;align=center;" vertex="1" parent="2X3JBGWOSWir_4q3YpKH-135">
          <mxGeometry y="133.22" width="310" height="71.03" as="geometry" />
        </mxCell>
        <mxCell id="2X3JBGWOSWir_4q3YpKH-138" value="FS" style="rounded=0;whiteSpace=wrap;html=1;fillColor=#dae8fc;fontSize=30;align=center;strokeColor=#6c8ebf;" vertex="1" parent="2X3JBGWOSWir_4q3YpKH-135">
          <mxGeometry y="204.25" width="310" height="71.03" as="geometry" />
        </mxCell>
        <mxCell id="2X3JBGWOSWir_4q3YpKH-139" value="OF" style="rounded=0;whiteSpace=wrap;html=1;fillColor=#fff2cc;fontSize=30;align=center;strokeColor=#d6b656;" vertex="1" parent="2X3JBGWOSWir_4q3YpKH-135">
          <mxGeometry y="61.19" width="310" height="71.03" as="geometry" />
        </mxCell>
        <mxCell id="2X3JBGWOSWir_4q3YpKH-140" value="Internet" style="endArrow=none;html=1;strokeWidth=5;fontSize=30;entryX=0.008;entryY=0.096;entryDx=0;entryDy=0;entryPerimeter=0;exitX=0.87;exitY=0.015;exitDx=0;exitDy=0;exitPerimeter=0;" edge="1" parent="1" target="2X3JBGWOSWir_4q3YpKH-136">
          <mxGeometry width="50" height="50" relative="1" as="geometry">
            <mxPoint x="206.27500000000032" y="2290.75" as="sourcePoint" />
            <mxPoint x="310" y="2230" as="targetPoint" />
          </mxGeometry>
        </mxCell>
        <mxCell id="2X3JBGWOSWir_4q3YpKH-141" value="Internet" style="endArrow=none;html=1;strokeWidth=5;fontSize=30;entryX=1;entryY=0.094;entryDx=0;entryDy=0;entryPerimeter=0;exitX=0;exitY=0.5;exitDx=0;exitDy=0;exitPerimeter=0;" edge="1" parent="1" target="2X3JBGWOSWir_4q3YpKH-136" source="2X3JBGWOSWir_4q3YpKH-146">
          <mxGeometry width="50" height="50" relative="1" as="geometry">
            <mxPoint x="1179.9875000000002" y="2280" as="sourcePoint" />
            <mxPoint x="859.9950000000001" y="2260.99" as="targetPoint" />
          </mxGeometry>
        </mxCell>
        <mxCell id="2X3JBGWOSWir_4q3YpKH-142" value="Step 2:Notify (SIP)" style="endArrow=classic;html=1;fontSize=25;strokeWidth=5;startArrow=classic;startFill=1;dashed=1;dashPattern=1 1;fontStyle=1;entryX=1;entryY=0.75;entryDx=0;entryDy=0;fillColor=#dae8fc;strokeColor=#6c8ebf;exitX=0;exitY=0.5;exitDx=0;exitDy=0;exitPerimeter=0;" edge="1" parent="1" target="2X3JBGWOSWir_4q3YpKH-138" source="2X3JBGWOSWir_4q3YpKH-146">
          <mxGeometry x="-0.2023" y="23" width="50" height="50" relative="1" as="geometry">
            <mxPoint x="1176.25" y="2297.017857142857" as="sourcePoint" />
            <mxPoint x="872.7025000000001" y="2283.24" as="targetPoint" />
            <Array as="points">
              <mxPoint x="1030" y="2320" />
            </Array>
            <mxPoint as="offset" />
          </mxGeometry>
        </mxCell>
        <mxCell id="2X3JBGWOSWir_4q3YpKH-143" value="" style="group" vertex="1" connectable="0" parent="1">
          <mxGeometry x="1182.5" y="2185" width="107.5" height="150" as="geometry" />
        </mxCell>
        <mxCell id="2X3JBGWOSWir_4q3YpKH-144" value="UserA" style="aspect=fixed;perimeter=ellipsePerimeter;html=1;align=center;shadow=0;dashed=0;spacingTop=3;image;image=img/lib/active_directory/user_accounts.svg;fillColor=#330000;fontSize=30;" vertex="1" parent="2X3JBGWOSWir_4q3YpKH-143">
          <mxGeometry x="65.34313725490196" y="49.390243902439025" width="35.130718954248366" height="34.076797385620914" as="geometry" />
        </mxCell>
        <mxCell id="2X3JBGWOSWir_4q3YpKH-145" value="" style="verticalLabelPosition=bottom;verticalAlign=top;html=1;shadow=0;dashed=0;strokeWidth=1;shape=mxgraph.android.phone2;strokeColor=#36393d;fillColor=#330000;" vertex="1" parent="2X3JBGWOSWir_4q3YpKH-143">
          <mxGeometry x="6.323529411764706" width="25.294117647058822" height="43.90243902439024" as="geometry" />
        </mxCell>
        <mxCell id="2X3JBGWOSWir_4q3YpKH-146" value="" style="aspect=fixed;pointerEvents=1;shadow=0;dashed=0;html=1;strokeColor=none;labelPosition=center;verticalLabelPosition=bottom;verticalAlign=top;align=center;fillColor=#00188D;shape=mxgraph.mscae.enterprise.workstation_client;rounded=0;fontSize=30;" vertex="1" parent="2X3JBGWOSWir_4q3YpKH-143">
          <mxGeometry x="6.323529411764706" y="59.268292682926834" width="35.130718954248366" height="35.130718954248366" as="geometry" />
        </mxCell>
        <mxCell id="2X3JBGWOSWir_4q3YpKH-147" value="" style="points=[[0.59,0,0],[0.87,0.015,0],[0.88,0.3,0],[0.99,0.99,0],[0.5,1,0],[0.01,0.99,0],[0.075,0.5,0],[0.17,0.115,0]];verticalLabelPosition=bottom;html=1;verticalAlign=top;aspect=fixed;align=center;pointerEvents=1;shape=mxgraph.cisco19.ip_phone;fillColor=#005073;strokeColor=none;" vertex="1" parent="2X3JBGWOSWir_4q3YpKH-143">
          <mxGeometry y="113.41463414634147" width="40.40032679738562" height="35.130718954248366" as="geometry" />
        </mxCell>
        <mxCell id="2X3JBGWOSWir_4q3YpKH-148" value="" style="group" vertex="1" connectable="0" parent="1">
          <mxGeometry x="1192.5" y="2419" width="107.5" height="150" as="geometry" />
        </mxCell>
        <mxCell id="2X3JBGWOSWir_4q3YpKH-149" value="UserB" style="aspect=fixed;perimeter=ellipsePerimeter;html=1;align=center;shadow=0;dashed=0;spacingTop=3;image;image=img/lib/active_directory/user_accounts.svg;fillColor=#330000;fontSize=30;" vertex="1" parent="2X3JBGWOSWir_4q3YpKH-148">
          <mxGeometry x="65.34313725490196" y="49.390243902439025" width="35.130718954248366" height="34.076797385620914" as="geometry" />
        </mxCell>
        <mxCell id="2X3JBGWOSWir_4q3YpKH-150" value="" style="verticalLabelPosition=bottom;verticalAlign=top;html=1;shadow=0;dashed=0;strokeWidth=1;shape=mxgraph.android.phone2;strokeColor=#36393d;fillColor=#330000;" vertex="1" parent="2X3JBGWOSWir_4q3YpKH-148">
          <mxGeometry x="6.323529411764706" width="25.294117647058822" height="43.90243902439024" as="geometry" />
        </mxCell>
        <mxCell id="2X3JBGWOSWir_4q3YpKH-151" value="" style="aspect=fixed;pointerEvents=1;shadow=0;dashed=0;html=1;strokeColor=none;labelPosition=center;verticalLabelPosition=bottom;verticalAlign=top;align=center;fillColor=#00188D;shape=mxgraph.mscae.enterprise.workstation_client;rounded=0;fontSize=30;" vertex="1" parent="2X3JBGWOSWir_4q3YpKH-148">
          <mxGeometry x="6.323529411764706" y="59.268292682926834" width="35.130718954248366" height="35.130718954248366" as="geometry" />
        </mxCell>
        <mxCell id="2X3JBGWOSWir_4q3YpKH-152" value="" style="points=[[0.59,0,0],[0.87,0.015,0],[0.88,0.3,0],[0.99,0.99,0],[0.5,1,0],[0.01,0.99,0],[0.075,0.5,0],[0.17,0.115,0]];verticalLabelPosition=bottom;html=1;verticalAlign=top;aspect=fixed;align=center;pointerEvents=1;shape=mxgraph.cisco19.ip_phone;fillColor=#005073;strokeColor=none;" vertex="1" parent="2X3JBGWOSWir_4q3YpKH-148">
          <mxGeometry y="113.41463414634147" width="40.40032679738562" height="35.130718954248366" as="geometry" />
        </mxCell>
        <mxCell id="2X3JBGWOSWir_4q3YpKH-153" value="Internet" style="endArrow=none;html=1;strokeWidth=5;fontSize=30;entryX=1;entryY=0.094;entryDx=0;entryDy=0;entryPerimeter=0;exitX=0.5;exitY=1;exitDx=0;exitDy=0;exitPerimeter=0;" edge="1" parent="1">
          <mxGeometry x="0.4556" width="50" height="50" relative="1" as="geometry">
            <mxPoint x="1212.3888888888887" y="2508.3990116371747" as="sourcePoint" />
            <mxPoint x="866" y="2194.14" as="targetPoint" />
            <mxPoint x="-1" as="offset" />
          </mxGeometry>
        </mxCell>
        <mxCell id="2X3JBGWOSWir_4q3YpKH-154" value="Step 4:Call UserB(SIP/RTP)" style="endArrow=classic;html=1;fontSize=25;strokeWidth=5;entryX=1;entryY=0.75;entryDx=0;entryDy=0;startArrow=classic;startFill=1;dashed=1;dashPattern=1 1;fontStyle=1;exitX=0.366;exitY=0.695;exitDx=0;exitDy=0;exitPerimeter=0;fillColor=#dae8fc;strokeColor=#6c8ebf;" edge="1" parent="1" source="2X3JBGWOSWir_4q3YpKH-151" target="2X3JBGWOSWir_4q3YpKH-138">
          <mxGeometry x="0.3097" y="10" width="50" height="50" relative="1" as="geometry">
            <mxPoint x="1186.25" y="2307.017857142857" as="sourcePoint" />
            <mxPoint x="870" y="2266.705" as="targetPoint" />
            <Array as="points">
              <mxPoint x="970" y="2480" />
            </Array>
            <mxPoint x="5" y="1" as="offset" />
          </mxGeometry>
        </mxCell>
        <mxCell id="2X3JBGWOSWir_4q3YpKH-155" value="Step 1:PhoneCtl Request&amp;nbsp;" style="text;html=1;strokeColor=none;fillColor=none;align=center;verticalAlign=middle;whiteSpace=wrap;rounded=0;fontSize=21;fontStyle=1" vertex="1" parent="1">
          <mxGeometry x="230" y="2304" width="270" height="20" as="geometry" />
        </mxCell>
        <mxCell id="2X3JBGWOSWir_4q3YpKH-156" value="Result" style="endArrow=none;html=1;fontSize=21;strokeWidth=5;exitX=1.091;exitY=0.46;exitDx=0;exitDy=0;exitPerimeter=0;startArrow=classic;startFill=1;dashed=1;dashPattern=1 1;fontStyle=1;endFill=0;" edge="1" parent="1">
          <mxGeometry x="-0.0119" y="-30" width="50" height="50" relative="1" as="geometry">
            <mxPoint x="228.98250000000007" y="2323" as="sourcePoint" />
            <mxPoint x="560" y="2339.35746031746" as="targetPoint" />
            <Array as="points">
              <mxPoint x="400" y="2420" />
            </Array>
            <mxPoint x="-12" y="3" as="offset" />
          </mxGeometry>
        </mxCell>
        <mxCell id="2X3JBGWOSWir_4q3YpKH-157" value="Step 5:A and B Talking" style="endArrow=classic;html=1;fontSize=25;strokeWidth=5;startArrow=classic;startFill=1;dashed=1;dashPattern=1 1;fontStyle=1;fillColor=#dae8fc;strokeColor=#6c8ebf;" edge="1" parent="1" source="2X3JBGWOSWir_4q3YpKH-144" target="2X3JBGWOSWir_4q3YpKH-149">
          <mxGeometry x="-0.0403" y="10" width="50" height="50" relative="1" as="geometry">
            <mxPoint x="1186.25" y="2307.017857142857" as="sourcePoint" />
            <mxPoint x="870" y="2427.5225" as="targetPoint" />
            <Array as="points">
              <mxPoint x="1340" y="2380" />
            </Array>
            <mxPoint as="offset" />
          </mxGeometry>
        </mxCell>
        <mxCell id="2X3JBGWOSWir_4q3YpKH-158" value="Step 3:Call FS(SIP/RTP)" style="endArrow=classic;html=1;fontSize=25;strokeWidth=5;startArrow=classic;startFill=1;dashed=1;dashPattern=1 1;fontStyle=1;entryX=1;entryY=0.75;entryDx=0;entryDy=0;fillColor=#dae8fc;strokeColor=#6c8ebf;exitX=0;exitY=1;exitDx=0;exitDy=0;exitPerimeter=0;" edge="1" parent="1" source="2X3JBGWOSWir_4q3YpKH-146">
          <mxGeometry x="-0.2023" y="23" width="50" height="50" relative="1" as="geometry">
            <mxPoint x="1190" y="2340" as="sourcePoint" />
            <mxPoint x="870" y="2427.5225" as="targetPoint" />
            <Array as="points">
              <mxPoint x="1050" y="2400" />
            </Array>
            <mxPoint as="offset" />
          </mxGeometry>
        </mxCell>
        <mxCell id="2X3JBGWOSWir_4q3YpKH-165" value="Local API" style="text;html=1;strokeColor=none;fillColor=none;align=center;verticalAlign=middle;whiteSpace=wrap;rounded=0;fontSize=21;fontStyle=1" vertex="1" parent="1">
          <mxGeometry x="240" y="1055" width="290" height="20" as="geometry" />
        </mxCell>
        <mxCell id="2X3JBGWOSWir_4q3YpKH-169" value="Local API&amp;nbsp;" style="text;html=1;strokeColor=none;fillColor=none;align=center;verticalAlign=middle;whiteSpace=wrap;rounded=0;fontSize=21;fontStyle=1" vertex="1" parent="1">
          <mxGeometry x="220" y="100" width="290" height="20" as="geometry" />
        </mxCell>
        <mxCell id="2X3JBGWOSWir_4q3YpKH-174" value="" style="points=[[0.59,0,0],[0.87,0.015,0],[0.88,0.3,0],[0.99,0.99,0],[0.5,1,0],[0.01,0.99,0],[0.075,0.5,0],[0.17,0.115,0]];verticalLabelPosition=bottom;html=1;verticalAlign=top;aspect=fixed;align=center;pointerEvents=1;shape=mxgraph.cisco19.ip_phone;fillColor=#005073;strokeColor=none;" vertex="1" parent="1">
          <mxGeometry x="162.5" y="2400" width="57.49999999999999" height="50" as="geometry" />
        </mxCell>
        <mxCell id="2X3JBGWOSWir_4q3YpKH-175" value="" style="points=[[0.59,0,0],[0.87,0.015,0],[0.88,0.3,0],[0.99,0.99,0],[0.5,1,0],[0.01,0.99,0],[0.075,0.5,0],[0.17,0.115,0]];verticalLabelPosition=bottom;html=1;verticalAlign=top;aspect=fixed;align=center;pointerEvents=1;shape=mxgraph.cisco19.ip_phone;fillColor=#005073;strokeColor=none;" vertex="1" parent="1">
          <mxGeometry x="162.5" y="1769" width="57.49999999999999" height="50" as="geometry" />
        </mxCell>
        <mxCell id="2X3JBGWOSWir_4q3YpKH-176" value="" style="points=[[0.59,0,0],[0.87,0.015,0],[0.88,0.3,0],[0.99,0.99,0],[0.5,1,0],[0.01,0.99,0],[0.075,0.5,0],[0.17,0.115,0]];verticalLabelPosition=bottom;html=1;verticalAlign=top;aspect=fixed;align=center;pointerEvents=1;shape=mxgraph.cisco19.ip_phone;fillColor=#005073;strokeColor=none;" vertex="1" parent="1">
          <mxGeometry x="172.5" y="1140" width="57.49999999999999" height="50" as="geometry" />
        </mxCell>
        <mxCell id="2X3JBGWOSWir_4q3YpKH-177" value="" style="points=[[0.59,0,0],[0.87,0.015,0],[0.88,0.3,0],[0.99,0.99,0],[0.5,1,0],[0.01,0.99,0],[0.075,0.5,0],[0.17,0.115,0]];verticalLabelPosition=bottom;html=1;verticalAlign=top;aspect=fixed;align=center;pointerEvents=1;shape=mxgraph.cisco19.ip_phone;fillColor=#005073;strokeColor=none;" vertex="1" parent="1">
          <mxGeometry x="180" y="585" width="57.49999999999999" height="50" as="geometry" />
        </mxCell>
        <mxCell id="2X3JBGWOSWir_4q3YpKH-178" value="Admin/User Manage Cofig" style="rounded=0;whiteSpace=wrap;html=1;fillColor=#eeeeee;strokeColor=#36393d;horizontal=1;align=center;verticalAlign=top;fontSize=33;fontStyle=1" vertex="1" parent="1">
          <mxGeometry x="60" y="2730" width="850" height="450" as="geometry" />
        </mxCell>
        <mxCell id="2X3JBGWOSWir_4q3YpKH-179" value="" style="verticalLabelPosition=bottom;verticalAlign=top;html=1;shadow=0;dashed=0;strokeWidth=1;shape=mxgraph.android.phone2;strokeColor=#36393d;fillColor=#330000;" vertex="1" parent="1">
          <mxGeometry x="180" y="2840" width="30" height="60" as="geometry" />
        </mxCell>
        <mxCell id="2X3JBGWOSWir_4q3YpKH-180" value="Admin/User" style="aspect=fixed;perimeter=ellipsePerimeter;html=1;align=center;shadow=0;dashed=0;spacingTop=3;image;image=img/lib/active_directory/user_accounts.svg;fillColor=#330000;fontSize=30;" vertex="1" parent="1">
          <mxGeometry x="116.25" y="2936.5" width="50" height="48.5" as="geometry" />
        </mxCell>
        <mxCell id="2X3JBGWOSWir_4q3YpKH-181" value="Restfull API Stream(WAMP)" style="endArrow=classic;html=1;fontSize=21;strokeWidth=5;exitX=1.091;exitY=0.46;exitDx=0;exitDy=0;exitPerimeter=0;startArrow=none;startFill=0;dashed=1;dashPattern=1 1;fontStyle=1" edge="1" parent="1" target="2X3JBGWOSWir_4q3YpKH-185">
          <mxGeometry x="-0.0119" y="-30" width="50" height="50" relative="1" as="geometry">
            <mxPoint x="218.98250000000007" y="2943" as="sourcePoint" />
            <mxPoint x="420" y="2880" as="targetPoint" />
            <Array as="points">
              <mxPoint x="390" y="2960" />
            </Array>
            <mxPoint x="-12" y="3" as="offset" />
          </mxGeometry>
        </mxCell>
        <mxCell id="2X3JBGWOSWir_4q3YpKH-182" value="" style="aspect=fixed;pointerEvents=1;shadow=0;dashed=0;html=1;strokeColor=none;labelPosition=center;verticalLabelPosition=bottom;verticalAlign=top;align=center;fillColor=#00188D;shape=mxgraph.mscae.enterprise.workstation_client;rounded=0;fontSize=30;" vertex="1" parent="1">
          <mxGeometry x="174.25" y="2935" width="50" height="50" as="geometry" />
        </mxCell>
        <mxCell id="2X3JBGWOSWir_4q3YpKH-183" value="" style="group" vertex="1" connectable="0" parent="1">
          <mxGeometry x="550" y="2790" width="310" height="310" as="geometry" />
        </mxCell>
        <mxCell id="2X3JBGWOSWir_4q3YpKH-184" value="RCS" style="whiteSpace=wrap;html=1;aspect=fixed;rounded=0;fillColor=#F8CECC;fontSize=30;align=center;fontStyle=1;verticalAlign=top;" vertex="1" parent="2X3JBGWOSWir_4q3YpKH-183">
          <mxGeometry width="310" height="310" as="geometry" />
        </mxCell>
        <mxCell id="2X3JBGWOSWir_4q3YpKH-185" value="UFO" style="rounded=0;whiteSpace=wrap;html=1;fontSize=30;align=center;" vertex="1" parent="2X3JBGWOSWir_4q3YpKH-183">
          <mxGeometry y="133.22" width="310" height="71.03" as="geometry" />
        </mxCell>
        <mxCell id="2X3JBGWOSWir_4q3YpKH-186" value="FS" style="rounded=0;whiteSpace=wrap;html=1;fillColor=#dae8fc;fontSize=30;align=center;strokeColor=#6c8ebf;" vertex="1" parent="2X3JBGWOSWir_4q3YpKH-183">
          <mxGeometry y="204.25" width="310" height="71.03" as="geometry" />
        </mxCell>
        <mxCell id="2X3JBGWOSWir_4q3YpKH-187" value="OF" style="rounded=0;whiteSpace=wrap;html=1;fillColor=#fff2cc;fontSize=30;align=center;strokeColor=#d6b656;" vertex="1" parent="2X3JBGWOSWir_4q3YpKH-183">
          <mxGeometry y="61.19" width="310" height="71.03" as="geometry" />
        </mxCell>
        <mxCell id="2X3JBGWOSWir_4q3YpKH-188" value="Internet" style="endArrow=none;html=1;strokeWidth=5;fontSize=30;entryX=0.008;entryY=0.096;entryDx=0;entryDy=0;entryPerimeter=0;exitX=0.87;exitY=0.015;exitDx=0;exitDy=0;exitPerimeter=0;" edge="1" parent="1" target="2X3JBGWOSWir_4q3YpKH-184">
          <mxGeometry width="50" height="50" relative="1" as="geometry">
            <mxPoint x="206.27500000000032" y="2920.75" as="sourcePoint" />
            <mxPoint x="310" y="2860" as="targetPoint" />
          </mxGeometry>
        </mxCell>
        <mxCell id="2X3JBGWOSWir_4q3YpKH-203" value="Step 1:Set/Get/Add/Del/Update Request&amp;nbsp;" style="text;html=1;strokeColor=none;fillColor=none;align=center;verticalAlign=middle;whiteSpace=wrap;rounded=0;fontSize=21;fontStyle=1" vertex="1" parent="1">
          <mxGeometry x="270" y="2934" width="250" height="20" as="geometry" />
        </mxCell>
        <mxCell id="2X3JBGWOSWir_4q3YpKH-204" value="Result" style="endArrow=none;html=1;fontSize=21;strokeWidth=5;exitX=1.091;exitY=0.46;exitDx=0;exitDy=0;exitPerimeter=0;startArrow=classic;startFill=1;dashed=1;dashPattern=1 1;fontStyle=1;endFill=0;" edge="1" parent="1">
          <mxGeometry x="0.0464" y="-14" width="50" height="50" relative="1" as="geometry">
            <mxPoint x="228.98250000000007" y="2953" as="sourcePoint" />
            <mxPoint x="560" y="2969.35746031746" as="targetPoint" />
            <Array as="points">
              <mxPoint x="400" y="3050" />
            </Array>
            <mxPoint x="4" y="-3" as="offset" />
          </mxGeometry>
        </mxCell>
        <mxCell id="2X3JBGWOSWir_4q3YpKH-207" value="" style="points=[[0.59,0,0],[0.87,0.015,0],[0.88,0.3,0],[0.99,0.99,0],[0.5,1,0],[0.01,0.99,0],[0.075,0.5,0],[0.17,0.115,0]];verticalLabelPosition=bottom;html=1;verticalAlign=top;aspect=fixed;align=center;pointerEvents=1;shape=mxgraph.cisco19.ip_phone;fillColor=#005073;strokeColor=none;" vertex="1" parent="1">
          <mxGeometry x="162.5" y="3040" width="57.49999999999999" height="50" as="geometry" />
        </mxCell>
        <mxCell id="2X3JBGWOSWir_4q3YpKH-210" style="edgeStyle=orthogonalEdgeStyle;rounded=0;orthogonalLoop=1;jettySize=auto;html=1;dashed=1;dashPattern=1 1;startArrow=none;startFill=0;endArrow=none;endFill=0;strokeWidth=5;fontSize=30;fontColor=#DAE8FC;" edge="1" parent="1" source="2X3JBGWOSWir_4q3YpKH-180" target="2X3JBGWOSWir_4q3YpKH-180">
          <mxGeometry relative="1" as="geometry" />
        </mxCell>
        <mxCell id="2X3JBGWOSWir_4q3YpKH-213" value="Regiest(SIP)" style="endArrow=classic;html=1;fontSize=21;strokeWidth=5;exitX=0.86;exitY=0.99;exitDx=0;exitDy=0;entryX=0;entryY=0.75;entryDx=0;entryDy=0;exitPerimeter=0;startArrow=classic;startFill=1;endFill=1;dashed=1;dashPattern=1 1;fontStyle=1;fillColor=#dae8fc;strokeColor=#6c8ebf;" edge="1" parent="1" source="2X3JBGWOSWir_4q3YpKH-15" target="2X3JBGWOSWir_4q3YpKH-53">
          <mxGeometry x="-0.3195" y="50" width="50" height="50" relative="1" as="geometry">
            <mxPoint x="258.9825000000001" y="543" as="sourcePoint" />
            <mxPoint x="579.9999999999998" y="553.7350000000001" as="targetPoint" />
            <Array as="points">
              <mxPoint x="270" y="620" />
              <mxPoint x="330" y="638" />
            </Array>
            <mxPoint x="50" y="50" as="offset" />
          </mxGeometry>
        </mxCell>
        <mxCell id="2X3JBGWOSWir_4q3YpKH-214" value="Login(XMPP)" style="endArrow=classic;html=1;fontSize=21;strokeWidth=5;exitX=0.149;exitY=0.431;exitDx=0;exitDy=0;entryX=0;entryY=0.25;entryDx=0;entryDy=0;exitPerimeter=0;startArrow=classic;startFill=1;endFill=1;dashed=1;dashPattern=1 1;fontStyle=1;fillColor=#fff2cc;strokeColor=#d6b656;" edge="1" parent="1" source="2X3JBGWOSWir_4q3YpKH-2" target="2X3JBGWOSWir_4q3YpKH-54">
          <mxGeometry x="-0.3195" y="50" width="50" height="50" relative="1" as="geometry">
            <mxPoint x="268.9825000000001" y="553" as="sourcePoint" />
            <mxPoint x="569.9999999999998" y="647.5225" as="targetPoint" />
            <Array as="points">
              <mxPoint x="280" y="410" />
              <mxPoint x="370" y="390" />
              <mxPoint x="480" y="400" />
            </Array>
            <mxPoint x="50" y="50" as="offset" />
          </mxGeometry>
        </mxCell>
        <mxCell id="2X3JBGWOSWir_4q3YpKH-217" value="CallCenter (User1 and User2 call in CallCenter, AgentA&amp;nbsp; AgentB )" style="rounded=0;whiteSpace=wrap;html=1;fillColor=#eeeeee;strokeColor=#36393d;horizontal=1;align=center;verticalAlign=top;fontSize=33;fontStyle=1" vertex="1" parent="1">
          <mxGeometry x="60" y="3400" width="1440" height="490" as="geometry" />
        </mxCell>
        <mxCell id="2X3JBGWOSWir_4q3YpKH-218" value="" style="verticalLabelPosition=bottom;verticalAlign=top;html=1;shadow=0;dashed=0;strokeWidth=1;shape=mxgraph.android.phone2;strokeColor=#36393d;fillColor=#330000;" vertex="1" parent="1">
          <mxGeometry x="166.25" y="3580" width="30" height="60" as="geometry" />
        </mxCell>
        <mxCell id="2X3JBGWOSWir_4q3YpKH-219" value="User1" style="aspect=fixed;perimeter=ellipsePerimeter;html=1;align=center;shadow=0;dashed=0;spacingTop=3;image;image=img/lib/active_directory/user_accounts.svg;fillColor=#330000;fontSize=30;" vertex="1" parent="1">
          <mxGeometry x="90" y="3585.75" width="50" height="48.5" as="geometry" />
        </mxCell>
        <mxCell id="2X3JBGWOSWir_4q3YpKH-257" value="User2" style="aspect=fixed;perimeter=ellipsePerimeter;html=1;align=center;shadow=0;dashed=0;spacingTop=3;image;image=img/lib/active_directory/user_accounts.svg;fillColor=#330000;fontSize=30;" vertex="1" parent="1">
          <mxGeometry x="90" y="3714.25" width="50" height="48.5" as="geometry" />
        </mxCell>
        <mxCell id="2X3JBGWOSWir_4q3YpKH-255" value="" style="aspect=fixed;perimeter=ellipsePerimeter;html=1;align=center;shadow=0;dashed=0;spacingTop=3;image;image=img/lib/active_directory/user_accounts.svg;fillColor=#330000;fontSize=30;" vertex="1" parent="1">
          <mxGeometry x="90" y="3714.25" width="50" height="48.5" as="geometry" />
        </mxCell>
        <mxCell id="2X3JBGWOSWir_4q3YpKH-220" value="Step 1:Call Request(SIP/RTP)" style="endArrow=classic;html=1;fontSize=21;strokeWidth=5;exitX=1.091;exitY=0.46;exitDx=0;exitDy=0;exitPerimeter=0;startArrow=classic;startFill=1;dashed=1;dashPattern=1 1;fontStyle=1;entryX=0;entryY=0.5;entryDx=0;entryDy=0;fillColor=#dae8fc;strokeColor=#6c8ebf;" edge="1" target="2X3JBGWOSWir_4q3YpKH-225" parent="1">
          <mxGeometry x="-0.0823" y="29" width="50" height="50" relative="1" as="geometry">
            <mxPoint x="218.98250000000007" y="3613" as="sourcePoint" />
            <mxPoint x="420" y="3550" as="targetPoint" />
            <Array as="points">
              <mxPoint x="390" y="3630" />
            </Array>
            <mxPoint x="1" as="offset" />
          </mxGeometry>
        </mxCell>
        <mxCell id="2X3JBGWOSWir_4q3YpKH-222" value="" style="group" vertex="1" connectable="0" parent="1">
          <mxGeometry x="550" y="3460" width="310" height="310" as="geometry" />
        </mxCell>
        <mxCell id="2X3JBGWOSWir_4q3YpKH-223" value="RCS" style="whiteSpace=wrap;html=1;aspect=fixed;rounded=0;fillColor=#F8CECC;fontSize=30;align=center;fontStyle=1;verticalAlign=top;" vertex="1" parent="2X3JBGWOSWir_4q3YpKH-222">
          <mxGeometry width="310" height="310" as="geometry" />
        </mxCell>
        <mxCell id="2X3JBGWOSWir_4q3YpKH-224" value="UFO" style="rounded=0;whiteSpace=wrap;html=1;fontSize=30;align=center;" vertex="1" parent="2X3JBGWOSWir_4q3YpKH-222">
          <mxGeometry y="133.22" width="310" height="71.03" as="geometry" />
        </mxCell>
        <mxCell id="2X3JBGWOSWir_4q3YpKH-225" value="FS" style="rounded=0;whiteSpace=wrap;html=1;fillColor=#dae8fc;fontSize=30;align=center;strokeColor=#6c8ebf;" vertex="1" parent="2X3JBGWOSWir_4q3YpKH-222">
          <mxGeometry y="204.25" width="310" height="71.03" as="geometry" />
        </mxCell>
        <mxCell id="2X3JBGWOSWir_4q3YpKH-226" value="OF" style="rounded=0;whiteSpace=wrap;html=1;fillColor=#fff2cc;fontSize=30;align=center;strokeColor=#d6b656;" vertex="1" parent="2X3JBGWOSWir_4q3YpKH-222">
          <mxGeometry y="61.19" width="310" height="71.03" as="geometry" />
        </mxCell>
        <mxCell id="2X3JBGWOSWir_4q3YpKH-227" value="Internet" style="endArrow=none;html=1;strokeWidth=5;fontSize=30;entryX=0.008;entryY=0.096;entryDx=0;entryDy=0;entryPerimeter=0;exitX=0.87;exitY=0.015;exitDx=0;exitDy=0;exitPerimeter=0;" edge="1" target="2X3JBGWOSWir_4q3YpKH-223" parent="1">
          <mxGeometry width="50" height="50" relative="1" as="geometry">
            <mxPoint x="206.27500000000055" y="3590.75" as="sourcePoint" />
            <mxPoint x="310" y="3530" as="targetPoint" />
          </mxGeometry>
        </mxCell>
        <mxCell id="2X3JBGWOSWir_4q3YpKH-228" value="Internet" style="endArrow=none;html=1;strokeWidth=5;fontSize=30;entryX=1;entryY=0.094;entryDx=0;entryDy=0;entryPerimeter=0;exitX=0;exitY=0.5;exitDx=0;exitDy=0;exitPerimeter=0;" edge="1" source="2X3JBGWOSWir_4q3YpKH-233" target="2X3JBGWOSWir_4q3YpKH-223" parent="1">
          <mxGeometry width="50" height="50" relative="1" as="geometry">
            <mxPoint x="1179.9875000000002" y="3580" as="sourcePoint" />
            <mxPoint x="859.9950000000001" y="3560.99" as="targetPoint" />
          </mxGeometry>
        </mxCell>
        <mxCell id="2X3JBGWOSWir_4q3YpKH-229" value="Step 2:Call AgentA(SIP)" style="endArrow=classic;html=1;fontSize=25;strokeWidth=5;startArrow=classic;startFill=1;dashed=1;dashPattern=1 1;fontStyle=1;entryX=1;entryY=0.75;entryDx=0;entryDy=0;fillColor=#dae8fc;strokeColor=#6c8ebf;exitX=0;exitY=0.5;exitDx=0;exitDy=0;exitPerimeter=0;" edge="1" source="2X3JBGWOSWir_4q3YpKH-233" target="2X3JBGWOSWir_4q3YpKH-225" parent="1">
          <mxGeometry x="-0.2023" y="23" width="50" height="50" relative="1" as="geometry">
            <mxPoint x="1176.25" y="3597.017857142857" as="sourcePoint" />
            <mxPoint x="872.7025000000001" y="3583.24" as="targetPoint" />
            <Array as="points">
              <mxPoint x="1030" y="3620" />
            </Array>
            <mxPoint as="offset" />
          </mxGeometry>
        </mxCell>
        <mxCell id="2X3JBGWOSWir_4q3YpKH-230" value="`" style="group" vertex="1" connectable="0" parent="1">
          <mxGeometry x="1187" y="3460" width="107.5" height="150" as="geometry" />
        </mxCell>
        <mxCell id="2X3JBGWOSWir_4q3YpKH-231" value="AgentA" style="aspect=fixed;perimeter=ellipsePerimeter;html=1;align=center;shadow=0;dashed=0;spacingTop=3;image;image=img/lib/active_directory/user_accounts.svg;fillColor=#330000;fontSize=30;" vertex="1" parent="2X3JBGWOSWir_4q3YpKH-230">
          <mxGeometry x="65.34313725490196" y="49.390243902439025" width="35.130718954248366" height="34.076797385620914" as="geometry" />
        </mxCell>
        <mxCell id="2X3JBGWOSWir_4q3YpKH-232" value="" style="verticalLabelPosition=bottom;verticalAlign=top;html=1;shadow=0;dashed=0;strokeWidth=1;shape=mxgraph.android.phone2;strokeColor=#36393d;fillColor=#330000;" vertex="1" parent="2X3JBGWOSWir_4q3YpKH-230">
          <mxGeometry x="6.323529411764706" width="25.294117647058822" height="43.90243902439024" as="geometry" />
        </mxCell>
        <mxCell id="2X3JBGWOSWir_4q3YpKH-233" value="" style="aspect=fixed;pointerEvents=1;shadow=0;dashed=0;html=1;strokeColor=none;labelPosition=center;verticalLabelPosition=bottom;verticalAlign=top;align=center;fillColor=#00188D;shape=mxgraph.mscae.enterprise.workstation_client;rounded=0;fontSize=30;" vertex="1" parent="2X3JBGWOSWir_4q3YpKH-230">
          <mxGeometry x="6.323529411764706" y="59.268292682926834" width="35.130718954248366" height="35.130718954248366" as="geometry" />
        </mxCell>
        <mxCell id="2X3JBGWOSWir_4q3YpKH-234" value="" style="points=[[0.59,0,0],[0.87,0.015,0],[0.88,0.3,0],[0.99,0.99,0],[0.5,1,0],[0.01,0.99,0],[0.075,0.5,0],[0.17,0.115,0]];verticalLabelPosition=bottom;html=1;verticalAlign=top;aspect=fixed;align=center;pointerEvents=1;shape=mxgraph.cisco19.ip_phone;fillColor=#005073;strokeColor=none;" vertex="1" parent="2X3JBGWOSWir_4q3YpKH-230">
          <mxGeometry y="113.41463414634147" width="40.40032679738562" height="35.130718954248366" as="geometry" />
        </mxCell>
        <mxCell id="2X3JBGWOSWir_4q3YpKH-235" value="" style="group" vertex="1" connectable="0" parent="1">
          <mxGeometry x="1192.5" y="3720" width="107.5" height="150" as="geometry" />
        </mxCell>
        <mxCell id="2X3JBGWOSWir_4q3YpKH-236" value="AgentB" style="aspect=fixed;perimeter=ellipsePerimeter;html=1;align=center;shadow=0;dashed=0;spacingTop=3;image;image=img/lib/active_directory/user_accounts.svg;fillColor=#330000;fontSize=30;" vertex="1" parent="2X3JBGWOSWir_4q3YpKH-235">
          <mxGeometry x="65.34313725490196" y="49.390243902439025" width="35.130718954248366" height="34.076797385620914" as="geometry" />
        </mxCell>
        <mxCell id="2X3JBGWOSWir_4q3YpKH-237" value="" style="verticalLabelPosition=bottom;verticalAlign=top;html=1;shadow=0;dashed=0;strokeWidth=1;shape=mxgraph.android.phone2;strokeColor=#36393d;fillColor=#330000;" vertex="1" parent="2X3JBGWOSWir_4q3YpKH-235">
          <mxGeometry x="6.323529411764706" width="25.294117647058822" height="43.90243902439024" as="geometry" />
        </mxCell>
        <mxCell id="2X3JBGWOSWir_4q3YpKH-238" value="" style="aspect=fixed;pointerEvents=1;shadow=0;dashed=0;html=1;strokeColor=none;labelPosition=center;verticalLabelPosition=bottom;verticalAlign=top;align=center;fillColor=#00188D;shape=mxgraph.mscae.enterprise.workstation_client;rounded=0;fontSize=30;" vertex="1" parent="2X3JBGWOSWir_4q3YpKH-235">
          <mxGeometry x="6.323529411764706" y="59.268292682926834" width="35.130718954248366" height="35.130718954248366" as="geometry" />
        </mxCell>
        <mxCell id="2X3JBGWOSWir_4q3YpKH-239" value="" style="points=[[0.59,0,0],[0.87,0.015,0],[0.88,0.3,0],[0.99,0.99,0],[0.5,1,0],[0.01,0.99,0],[0.075,0.5,0],[0.17,0.115,0]];verticalLabelPosition=bottom;html=1;verticalAlign=top;aspect=fixed;align=center;pointerEvents=1;shape=mxgraph.cisco19.ip_phone;fillColor=#005073;strokeColor=none;" vertex="1" parent="2X3JBGWOSWir_4q3YpKH-235">
          <mxGeometry y="113.41463414634147" width="40.40032679738562" height="35.130718954248366" as="geometry" />
        </mxCell>
        <mxCell id="2X3JBGWOSWir_4q3YpKH-240" value="Internet" style="endArrow=none;html=1;strokeWidth=5;fontSize=30;entryX=1;entryY=0.094;entryDx=0;entryDy=0;entryPerimeter=0;exitX=0.5;exitY=1;exitDx=0;exitDy=0;exitPerimeter=0;" edge="1" parent="1">
          <mxGeometry x="0.4556" width="50" height="50" relative="1" as="geometry">
            <mxPoint x="1212.3888888888887" y="3808.399011637175" as="sourcePoint" />
            <mxPoint x="865.9999999999995" y="3494.1399999999994" as="targetPoint" />
            <mxPoint x="-1" as="offset" />
          </mxGeometry>
        </mxCell>
        <mxCell id="2X3JBGWOSWir_4q3YpKH-241" value="Step 3:Call AgentB(SIP)" style="endArrow=classic;html=1;fontSize=25;strokeWidth=5;entryX=1;entryY=0.75;entryDx=0;entryDy=0;startArrow=classic;startFill=1;dashed=1;dashPattern=1 1;fontStyle=1;exitX=0.366;exitY=0.695;exitDx=0;exitDy=0;exitPerimeter=0;fillColor=#dae8fc;strokeColor=#6c8ebf;" edge="1" source="2X3JBGWOSWir_4q3YpKH-238" target="2X3JBGWOSWir_4q3YpKH-225" parent="1">
          <mxGeometry x="-0.142" y="3" width="50" height="50" relative="1" as="geometry">
            <mxPoint x="1186.25" y="3607.017857142857" as="sourcePoint" />
            <mxPoint x="870" y="3566.705" as="targetPoint" />
            <Array as="points" />
            <mxPoint as="offset" />
          </mxGeometry>
        </mxCell>
        <mxCell id="2X3JBGWOSWir_4q3YpKH-243" value="Step 2:Call Request(SIP/RTP)" style="endArrow=classic;html=1;fontSize=21;strokeWidth=5;exitX=1.091;exitY=0.46;exitDx=0;exitDy=0;exitPerimeter=0;startArrow=classic;startFill=1;dashed=1;dashPattern=1 1;fontStyle=1;endFill=1;fillColor=#dae8fc;strokeColor=#6c8ebf;entryX=0;entryY=0.5;entryDx=0;entryDy=0;" edge="1" parent="1" target="2X3JBGWOSWir_4q3YpKH-225">
          <mxGeometry x="-0.0119" y="-30" width="50" height="50" relative="1" as="geometry">
            <mxPoint x="174.00250000000008" y="3762.75" as="sourcePoint" />
            <mxPoint x="485.02" y="3839.75" as="targetPoint" />
            <Array as="points">
              <mxPoint x="345" y="3770" />
            </Array>
            <mxPoint x="-12" y="3" as="offset" />
          </mxGeometry>
        </mxCell>
        <mxCell id="2X3JBGWOSWir_4q3YpKH-246" value="" style="points=[[0.59,0,0],[0.87,0.015,0],[0.88,0.3,0],[0.99,0.99,0],[0.5,1,0],[0.01,0.99,0],[0.075,0.5,0],[0.17,0.115,0]];verticalLabelPosition=bottom;html=1;verticalAlign=top;aspect=fixed;align=center;pointerEvents=1;shape=mxgraph.cisco19.ip_phone;fillColor=#005073;strokeColor=none;" vertex="1" parent="1">
          <mxGeometry x="162.5" y="3700" width="57.49999999999999" height="50" as="geometry" />
        </mxCell>
        <mxCell id="2X3JBGWOSWir_4q3YpKH-259" value="Step 4:User1 and AgentA talking(RTP)" style="endArrow=classic;html=1;fontSize=25;strokeWidth=5;entryX=1;entryY=0.75;entryDx=0;entryDy=0;startArrow=classic;startFill=1;dashed=1;dashPattern=1 1;fontStyle=1;exitX=0.144;exitY=-0.173;exitDx=0;exitDy=0;exitPerimeter=0;fillColor=#dae8fc;strokeColor=#6c8ebf;" edge="1" parent="1" source="2X3JBGWOSWir_4q3YpKH-234">
          <mxGeometry x="-0.4345" y="49" width="50" height="50" relative="1" as="geometry">
            <mxPoint x="1221.6813725490197" y="3813.684142356131" as="sourcePoint" />
            <mxPoint x="870" y="3727.5225" as="targetPoint" />
            <Array as="points">
              <mxPoint x="1080" y="3700" />
            </Array>
            <mxPoint as="offset" />
          </mxGeometry>
        </mxCell>
        <mxCell id="2X3JBGWOSWir_4q3YpKH-260" value="Step 5:User2 and&amp;nbsp; AgentB talking(RTP)" style="endArrow=classic;html=1;fontSize=25;strokeWidth=5;entryX=1;entryY=0.75;entryDx=0;entryDy=0;startArrow=classic;startFill=1;dashed=1;dashPattern=1 1;fontStyle=1;exitX=0.366;exitY=0.695;exitDx=0;exitDy=0;exitPerimeter=0;fillColor=#dae8fc;strokeColor=#6c8ebf;" edge="1" parent="1">
          <mxGeometry x="0.1551" y="26" width="50" height="50" relative="1" as="geometry">
            <mxPoint x="1221.6813725490197" y="3813.684142356131" as="sourcePoint" />
            <mxPoint x="870" y="3727.5225" as="targetPoint" />
            <Array as="points">
              <mxPoint x="970" y="3814" />
            </Array>
            <mxPoint as="offset" />
          </mxGeometry>
        </mxCell>
        <mxCell id="2X3JBGWOSWir_4q3YpKH-263" value="Group IM (UserA&amp;nbsp; UserB&amp;nbsp; and UserC are in Group)" style="rounded=0;whiteSpace=wrap;html=1;fillColor=#eeeeee;strokeColor=#36393d;horizontal=1;align=center;verticalAlign=top;fontSize=33;fontStyle=1" vertex="1" parent="1">
          <mxGeometry x="60" y="4150" width="1260" height="580" as="geometry" />
        </mxCell>
        <mxCell id="2X3JBGWOSWir_4q3YpKH-264" value="" style="verticalLabelPosition=bottom;verticalAlign=top;html=1;shadow=0;dashed=0;strokeWidth=1;shape=mxgraph.android.phone2;strokeColor=#36393d;fillColor=#330000;" vertex="1" parent="1">
          <mxGeometry x="170" y="4260" width="30" height="60" as="geometry" />
        </mxCell>
        <mxCell id="2X3JBGWOSWir_4q3YpKH-265" value="UserA" style="aspect=fixed;perimeter=ellipsePerimeter;html=1;align=center;shadow=0;dashed=0;spacingTop=3;image;image=img/lib/active_directory/user_accounts.svg;fillColor=#330000;fontSize=30;" vertex="1" parent="1">
          <mxGeometry x="90" y="4335.75" width="50" height="48.5" as="geometry" />
        </mxCell>
        <mxCell id="2X3JBGWOSWir_4q3YpKH-266" value="step 1:Send Msg/File(XMPP)" style="endArrow=classic;html=1;fontSize=21;strokeWidth=5;exitX=1.091;exitY=0.46;exitDx=0;exitDy=0;entryX=0;entryY=0.5;entryDx=0;entryDy=0;exitPerimeter=0;startArrow=classic;startFill=1;dashed=1;dashPattern=1 1;fontStyle=1;fillColor=#fff2cc;strokeColor=#d6b656;" edge="1" target="2X3JBGWOSWir_4q3YpKH-272" parent="1">
          <mxGeometry x="-0.0119" y="-30" width="50" height="50" relative="1" as="geometry">
            <mxPoint x="218.98250000000007" y="4363" as="sourcePoint" />
            <mxPoint x="420" y="4300" as="targetPoint" />
            <Array as="points">
              <mxPoint x="390" y="4380" />
            </Array>
            <mxPoint x="-12" y="3" as="offset" />
          </mxGeometry>
        </mxCell>
        <mxCell id="2X3JBGWOSWir_4q3YpKH-267" value="" style="aspect=fixed;pointerEvents=1;shadow=0;dashed=0;html=1;strokeColor=none;labelPosition=center;verticalLabelPosition=bottom;verticalAlign=top;align=center;fillColor=#00188D;shape=mxgraph.mscae.enterprise.workstation_client;rounded=0;fontSize=30;" vertex="1" parent="1">
          <mxGeometry x="166.25" y="4355" width="50" height="50" as="geometry" />
        </mxCell>
        <mxCell id="2X3JBGWOSWir_4q3YpKH-268" value="" style="group" vertex="1" connectable="0" parent="1">
          <mxGeometry x="470" y="4210" width="310" height="310" as="geometry" />
        </mxCell>
        <mxCell id="2X3JBGWOSWir_4q3YpKH-269" value="RCS" style="whiteSpace=wrap;html=1;aspect=fixed;rounded=0;fillColor=#F8CECC;fontSize=30;align=center;fontStyle=1;verticalAlign=top;" vertex="1" parent="2X3JBGWOSWir_4q3YpKH-268">
          <mxGeometry width="310" height="310" as="geometry" />
        </mxCell>
        <mxCell id="2X3JBGWOSWir_4q3YpKH-270" value="UFO" style="rounded=0;whiteSpace=wrap;html=1;fontSize=30;align=center;" vertex="1" parent="2X3JBGWOSWir_4q3YpKH-268">
          <mxGeometry y="133.22" width="310" height="71.03" as="geometry" />
        </mxCell>
        <mxCell id="2X3JBGWOSWir_4q3YpKH-271" value="FS" style="rounded=0;whiteSpace=wrap;html=1;fillColor=#dae8fc;fontSize=30;align=center;strokeColor=#6c8ebf;" vertex="1" parent="2X3JBGWOSWir_4q3YpKH-268">
          <mxGeometry y="204.25" width="310" height="71.03" as="geometry" />
        </mxCell>
        <mxCell id="2X3JBGWOSWir_4q3YpKH-272" value="OF" style="rounded=0;whiteSpace=wrap;html=1;fillColor=#fff2cc;fontSize=30;align=center;strokeColor=#d6b656;" vertex="1" parent="2X3JBGWOSWir_4q3YpKH-268">
          <mxGeometry y="61.19" width="310" height="71.03" as="geometry" />
        </mxCell>
        <mxCell id="2X3JBGWOSWir_4q3YpKH-273" value="Internet" style="endArrow=none;html=1;strokeWidth=5;fontSize=30;entryX=0.008;entryY=0.096;entryDx=0;entryDy=0;entryPerimeter=0;exitX=0.87;exitY=0.015;exitDx=0;exitDy=0;exitPerimeter=0;" edge="1" target="2X3JBGWOSWir_4q3YpKH-269" parent="1">
          <mxGeometry width="50" height="50" relative="1" as="geometry">
            <mxPoint x="206.27500000000032" y="4340.75" as="sourcePoint" />
            <mxPoint x="310" y="4280" as="targetPoint" />
          </mxGeometry>
        </mxCell>
        <mxCell id="2X3JBGWOSWir_4q3YpKH-274" value="Internet" style="endArrow=none;html=1;strokeWidth=5;fontSize=30;entryX=1;entryY=0.094;entryDx=0;entryDy=0;entryPerimeter=0;exitX=0.065;exitY=0.25;exitDx=0;exitDy=0;exitPerimeter=0;" edge="1" target="2X3JBGWOSWir_4q3YpKH-269" parent="1">
          <mxGeometry width="50" height="50" relative="1" as="geometry">
            <mxPoint x="1179.9875000000002" y="4330" as="sourcePoint" />
            <mxPoint x="859.9950000000001" y="4310.99" as="targetPoint" />
          </mxGeometry>
        </mxCell>
        <mxCell id="2X3JBGWOSWir_4q3YpKH-275" value="Step 2:Recive Msg/File(XMPP)&lt;br&gt;" style="endArrow=classic;html=1;fontSize=21;strokeWidth=5;startArrow=classic;startFill=1;dashed=1;dashPattern=1 1;fontStyle=1;entryX=1;entryY=0.5;entryDx=0;entryDy=0;fillColor=#fff2cc;strokeColor=#d6b656;" edge="1" target="2X3JBGWOSWir_4q3YpKH-272" parent="1">
          <mxGeometry x="-0.2023" y="23" width="50" height="50" relative="1" as="geometry">
            <mxPoint x="1176.25" y="4347.017857142857" as="sourcePoint" />
            <mxPoint x="872.7025000000001" y="4333.24" as="targetPoint" />
            <Array as="points">
              <mxPoint x="1030" y="4370" />
            </Array>
            <mxPoint as="offset" />
          </mxGeometry>
        </mxCell>
        <mxCell id="2X3JBGWOSWir_4q3YpKH-276" value="" style="group" vertex="1" connectable="0" parent="1">
          <mxGeometry x="1182.5" y="4280" width="107.5" height="150" as="geometry" />
        </mxCell>
        <mxCell id="2X3JBGWOSWir_4q3YpKH-277" value="UserB" style="aspect=fixed;perimeter=ellipsePerimeter;html=1;align=center;shadow=0;dashed=0;spacingTop=3;image;image=img/lib/active_directory/user_accounts.svg;fillColor=#330000;fontSize=30;" vertex="1" parent="2X3JBGWOSWir_4q3YpKH-276">
          <mxGeometry x="65.34313725490196" y="49.390243902439025" width="35.130718954248366" height="34.076797385620914" as="geometry" />
        </mxCell>
        <mxCell id="2X3JBGWOSWir_4q3YpKH-278" value="" style="verticalLabelPosition=bottom;verticalAlign=top;html=1;shadow=0;dashed=0;strokeWidth=1;shape=mxgraph.android.phone2;strokeColor=#36393d;fillColor=#330000;" vertex="1" parent="2X3JBGWOSWir_4q3YpKH-276">
          <mxGeometry x="6.323529411764706" width="25.294117647058822" height="43.90243902439024" as="geometry" />
        </mxCell>
        <mxCell id="2X3JBGWOSWir_4q3YpKH-279" value="" style="aspect=fixed;pointerEvents=1;shadow=0;dashed=0;html=1;strokeColor=none;labelPosition=center;verticalLabelPosition=bottom;verticalAlign=top;align=center;fillColor=#00188D;shape=mxgraph.mscae.enterprise.workstation_client;rounded=0;fontSize=30;" vertex="1" parent="2X3JBGWOSWir_4q3YpKH-276">
          <mxGeometry x="6.323529411764706" y="59.268292682926834" width="35.130718954248366" height="35.130718954248366" as="geometry" />
        </mxCell>
        <mxCell id="2X3JBGWOSWir_4q3YpKH-280" value="" style="points=[[0.59,0,0],[0.87,0.015,0],[0.88,0.3,0],[0.99,0.99,0],[0.5,1,0],[0.01,0.99,0],[0.075,0.5,0],[0.17,0.115,0]];verticalLabelPosition=bottom;html=1;verticalAlign=top;aspect=fixed;align=center;pointerEvents=1;shape=mxgraph.cisco19.ip_phone;fillColor=#005073;strokeColor=none;" vertex="1" parent="2X3JBGWOSWir_4q3YpKH-276">
          <mxGeometry y="113.41463414634147" width="40.40032679738562" height="35.130718954248366" as="geometry" />
        </mxCell>
        <mxCell id="2X3JBGWOSWir_4q3YpKH-281" value="Local API" style="text;html=1;strokeColor=none;fillColor=none;align=center;verticalAlign=middle;whiteSpace=wrap;rounded=0;fontSize=21;fontStyle=1" vertex="1" parent="1">
          <mxGeometry x="230" y="4345" width="290" height="20" as="geometry" />
        </mxCell>
        <mxCell id="2X3JBGWOSWir_4q3YpKH-282" value="" style="points=[[0.59,0,0],[0.87,0.015,0],[0.88,0.3,0],[0.99,0.99,0],[0.5,1,0],[0.01,0.99,0],[0.075,0.5,0],[0.17,0.115,0]];verticalLabelPosition=bottom;html=1;verticalAlign=top;aspect=fixed;align=center;pointerEvents=1;shape=mxgraph.cisco19.ip_phone;fillColor=#005073;strokeColor=none;" vertex="1" parent="1">
          <mxGeometry x="162.5" y="4430" width="57.49999999999999" height="50" as="geometry" />
        </mxCell>
        <mxCell id="2X3JBGWOSWir_4q3YpKH-283" value="" style="group" vertex="1" connectable="0" parent="1">
          <mxGeometry x="1020" y="4500" width="107.5" height="150" as="geometry" />
        </mxCell>
        <mxCell id="2X3JBGWOSWir_4q3YpKH-284" value="UserC" style="aspect=fixed;perimeter=ellipsePerimeter;html=1;align=center;shadow=0;dashed=0;spacingTop=3;image;image=img/lib/active_directory/user_accounts.svg;fillColor=#330000;fontSize=30;" vertex="1" parent="2X3JBGWOSWir_4q3YpKH-283">
          <mxGeometry x="65.34313725490196" y="49.390243902439025" width="35.130718954248366" height="34.076797385620914" as="geometry" />
        </mxCell>
        <mxCell id="2X3JBGWOSWir_4q3YpKH-285" value="" style="verticalLabelPosition=bottom;verticalAlign=top;html=1;shadow=0;dashed=0;strokeWidth=1;shape=mxgraph.android.phone2;strokeColor=#36393d;fillColor=#330000;" vertex="1" parent="2X3JBGWOSWir_4q3YpKH-283">
          <mxGeometry x="6.323529411764706" width="25.294117647058822" height="43.90243902439024" as="geometry" />
        </mxCell>
        <mxCell id="2X3JBGWOSWir_4q3YpKH-286" value="" style="aspect=fixed;pointerEvents=1;shadow=0;dashed=0;html=1;strokeColor=none;labelPosition=center;verticalLabelPosition=bottom;verticalAlign=top;align=center;fillColor=#00188D;shape=mxgraph.mscae.enterprise.workstation_client;rounded=0;fontSize=30;" vertex="1" parent="2X3JBGWOSWir_4q3YpKH-283">
          <mxGeometry x="6.323529411764706" y="59.268292682926834" width="35.130718954248366" height="35.130718954248366" as="geometry" />
        </mxCell>
        <mxCell id="2X3JBGWOSWir_4q3YpKH-287" value="" style="points=[[0.59,0,0],[0.87,0.015,0],[0.88,0.3,0],[0.99,0.99,0],[0.5,1,0],[0.01,0.99,0],[0.075,0.5,0],[0.17,0.115,0]];verticalLabelPosition=bottom;html=1;verticalAlign=top;aspect=fixed;align=center;pointerEvents=1;shape=mxgraph.cisco19.ip_phone;fillColor=#005073;strokeColor=none;" vertex="1" parent="2X3JBGWOSWir_4q3YpKH-283">
          <mxGeometry y="113.41463414634147" width="40.40032679738562" height="35.130718954248366" as="geometry" />
        </mxCell>
        <mxCell id="2X3JBGWOSWir_4q3YpKH-289" style="edgeStyle=orthogonalEdgeStyle;rounded=0;orthogonalLoop=1;jettySize=auto;html=1;exitX=0;exitY=0.5;exitDx=0;exitDy=0;exitPerimeter=0;entryX=0.01;entryY=0.01;entryDx=0;entryDy=0;entryPerimeter=0;dashed=1;dashPattern=1 1;startArrow=classic;startFill=1;endArrow=classic;endFill=1;strokeWidth=5;fontSize=30;fontColor=#DAE8FC;" edge="1" parent="2X3JBGWOSWir_4q3YpKH-283" source="2X3JBGWOSWir_4q3YpKH-286" target="2X3JBGWOSWir_4q3YpKH-286">
          <mxGeometry relative="1" as="geometry" />
        </mxCell>
        <mxCell id="2X3JBGWOSWir_4q3YpKH-288" value="Internet" style="endArrow=none;html=1;strokeWidth=5;fontSize=30;entryX=1;entryY=0.094;entryDx=0;entryDy=0;entryPerimeter=0;exitX=0.3;exitY=0.696;exitDx=0;exitDy=0;exitPerimeter=0;" edge="1" parent="1" source="2X3JBGWOSWir_4q3YpKH-286">
          <mxGeometry x="-0.3118" y="2" width="50" height="50" relative="1" as="geometry">
            <mxPoint x="1189.9875000000002" y="4340" as="sourcePoint" />
            <mxPoint x="790" y="4249.14" as="targetPoint" />
            <mxPoint as="offset" />
          </mxGeometry>
        </mxCell>
        <mxCell id="2X3JBGWOSWir_4q3YpKH-290" value="Step 3:Recive Msg/File(XMPP)" style="endArrow=classic;html=1;fontSize=21;strokeWidth=5;startArrow=classic;startFill=1;dashed=1;dashPattern=1 1;fontStyle=1;entryX=1.004;entryY=0.639;entryDx=0;entryDy=0;fillColor=#fff2cc;strokeColor=#d6b656;exitX=0.5;exitY=1;exitDx=0;exitDy=0;exitPerimeter=0;entryPerimeter=0;" edge="1" parent="1" source="2X3JBGWOSWir_4q3YpKH-286" target="2X3JBGWOSWir_4q3YpKH-272">
          <mxGeometry x="-0.2023" y="23" width="50" height="50" relative="1" as="geometry">
            <mxPoint x="1186.25" y="4357.017857142856" as="sourcePoint" />
            <mxPoint x="790" y="4316.704999999999" as="targetPoint" />
            <Array as="points">
              <mxPoint x="900" y="4530" />
            </Array>
            <mxPoint as="offset" />
          </mxGeometry>
        </mxCell>
      </root>
    </mxGraphModel>
  </diagram>
</mxfile>
